<svg width="25" height="25" viewBox="0 0 25 25" fill="none" xmlns="http://www.w3.org/2000/svg">
<circle cx="12.5" cy="12.5" r="12.5" fill="url(#paint0_linear_204_48491)"/>
<path d="M12.5 6C12.7155 6 12.9222 6.0856 13.0745 6.23798C13.2269 6.39035 13.3125 6.59701 13.3125 6.8125V11.6875H18.1875C18.403 11.6875 18.6097 11.7731 18.762 11.9255C18.9144 12.0778 19 12.2845 19 12.5C19 12.7155 18.9144 12.9222 18.762 13.0745C18.6097 13.2269 18.403 13.3125 18.1875 13.3125H13.3125V18.1875C13.3125 18.403 13.2269 18.6097 13.0745 18.762C12.9222 18.9144 12.7155 19 12.5 19C12.2845 19 12.0778 18.9144 11.9255 18.762C11.7731 18.6097 11.6875 18.403 11.6875 18.1875V13.3125H6.8125C6.59701 13.3125 6.39035 13.2269 6.23798 13.0745C6.0856 12.9222 6 12.7155 6 12.5C6 12.2845 6.0856 12.0778 6.23798 11.9255C6.39035 11.7731 6.59701 11.6875 6.8125 11.6875H11.6875V6.8125C11.6875 6.59701 11.7731 6.39035 11.9255 6.23798C12.0778 6.0856 12.2845 6 12.5 6Z" fill="#F6F6F6"/>
<defs>
<linearGradient id="paint0_linear_204_48491" x1="12.5" y1="0" x2="32.7223" y2="12.7969" gradientUnits="userSpaceOnUse">
<stop stop-color="#30BDDC"/>
<stop offset="1" stop-color="#1E94E9"/>
</linearGradient>
</defs>
</svg>
