<svg width="18" height="21" viewBox="0 0 18 21" fill="none" xmlns="http://www.w3.org/2000/svg">
<path d="M9.06125 4.74482C10.0375 4.74482 11.2612 4.11741 11.99 3.28086C12.65 2.52273 13.1313 1.46397 13.1313 0.405206C13.1313 0.261423 13.1175 0.11764 13.09 0C12.0038 0.0392134 10.6975 0.692771 9.91375 1.56854C9.295 2.23517 8.73125 3.28086 8.73125 4.35269C8.73125 4.50954 8.75875 4.6664 8.7725 4.71868C8.84125 4.73175 8.95125 4.74482 9.06125 4.74482ZM5.62375 20.5609C6.9575 20.5609 7.54875 19.7113 9.2125 19.7113C10.9038 19.7113 11.275 20.5348 12.76 20.5348C14.2175 20.5348 15.1938 19.2538 16.115 17.999C17.1463 16.5611 17.5725 15.1495 17.6 15.0841C17.5038 15.058 14.7125 13.973 14.7125 10.9275C14.7125 8.2871 16.9125 7.09763 17.0363 7.00613C15.5788 5.01932 13.365 4.96703 12.76 4.96703C11.1238 4.96703 9.79 5.90815 8.95125 5.90815C8.04375 5.90815 6.8475 5.01932 5.43125 5.01932C2.73625 5.01932 0 7.13684 0 11.1366C0 13.6201 1.0175 16.2474 2.26875 17.9467C3.34125 19.3845 4.27625 20.5609 5.62375 20.5609Z" fill="black"/>
</svg>
