<svg width="40" height="37" viewBox="0 0 40 37" fill="none" xmlns="http://www.w3.org/2000/svg">
<path fill-rule="evenodd" clip-rule="evenodd" d="M13.822 19.2314C13.5095 18.9501 13.334 18.5687 13.334 18.1709C13.334 17.7732 13.5095 17.3917 13.822 17.1104L23.2503 8.62492C23.404 8.48166 23.5879 8.36739 23.7913 8.28877C23.9946 8.21016 24.2133 8.16878 24.4346 8.16705C24.6559 8.16532 24.8754 8.20327 25.0802 8.27869C25.285 8.35411 25.4711 8.46549 25.6276 8.60633C25.7841 8.74717 25.9079 8.91465 25.9917 9.09899C26.0755 9.28334 26.1176 9.48086 26.1157 9.68003C26.1138 9.8792 26.0678 10.076 25.9805 10.259C25.8931 10.442 25.7661 10.6076 25.607 10.7459L17.357 18.1709L25.607 25.5959C25.9106 25.8788 26.0785 26.2577 26.0748 26.651C26.071 27.0443 25.8957 27.4205 25.5867 27.6987C25.2776 27.9768 24.8596 28.1345 24.4226 28.1379C23.9856 28.1414 23.5646 27.9902 23.2503 27.7169L13.822 19.2314Z" fill="black"/>
</svg>
