<svg width="40" height="37" viewBox="0 0 40 37" fill="none" xmlns="http://www.w3.org/2000/svg">
<g opacity="0.7" clip-path="url(#clip0_204_48026)">
<path fill-rule="evenodd" clip-rule="evenodd" d="M26.1786 17.1107C26.491 17.392 26.6666 17.7734 26.6666 18.1712C26.6666 18.5689 26.491 18.9504 26.1786 19.2317L16.7502 27.7172C16.5965 27.8604 16.4126 27.9747 16.2093 28.0533C16.0059 28.1319 15.7872 28.1733 15.5659 28.175C15.3446 28.1768 15.1252 28.1388 14.9203 28.0634C14.7155 27.988 14.5294 27.8766 14.3729 27.7358C14.2164 27.5949 14.0927 27.4275 14.0089 27.2431C13.9251 27.0588 13.8829 26.8612 13.8848 26.6621C13.8868 26.4629 13.9327 26.2661 14.0201 26.0831C14.1074 25.9001 14.2344 25.7345 14.3936 25.5962L22.6436 18.1712L14.3936 10.7462C14.09 10.4633 13.922 10.0844 13.9258 9.69107C13.9296 9.29777 14.1049 8.92155 14.4139 8.64344C14.7229 8.36533 15.1409 8.20758 15.5779 8.20416C16.0149 8.20074 16.4359 8.35193 16.7502 8.62517L26.1786 17.1107Z" fill="black"/>
</g>
<defs>
<clipPath id="clip0_204_48026">
<rect width="40" height="36" fill="white" transform="translate(0 0.170898)"/>
</clipPath>
</defs>
</svg>
