<svg width="25" height="25" viewBox="0 0 25 25" fill="none" xmlns="http://www.w3.org/2000/svg">
<circle cx="12.5" cy="12.5" r="12.5" fill="url(#paint0_linear_204_48432)"/>
<path d="M18.0957 11.7678C18.5483 11.7678 18.7373 11.1863 18.3696 10.9182L12.7754 6.84888C12.6955 6.79034 12.599 6.75879 12.5 6.75879C12.4009 6.75879 12.3045 6.79034 12.2246 6.84888L6.63034 10.9182C6.26266 11.1848 6.45163 11.7678 6.90573 11.7678H7.81247V17.2463H6.75778C6.69333 17.2463 6.64059 17.2991 6.64059 17.3635V18.1252C6.64059 18.1897 6.69333 18.2424 6.75778 18.2424H18.2422C18.3066 18.2424 18.3593 18.1897 18.3593 18.1252V17.3635C18.3593 17.2991 18.3066 17.2463 18.2422 17.2463H17.1875V11.7678H18.0957ZM12.5 7.88159L16.4712 10.7703H8.52878L12.5 7.88159ZM8.86716 11.7678H10.581V17.2463H8.86716V11.7678ZM11.6357 11.7678H13.3496V17.2463H11.6357V11.7678ZM16.1328 17.2463H14.4043V11.7678H16.1328V17.2463Z" fill="#F6F6F6"/>
<defs>
<linearGradient id="paint0_linear_204_48432" x1="12.5" y1="0" x2="32.7223" y2="12.7969" gradientUnits="userSpaceOnUse">
<stop stop-color="#30BDDC"/>
<stop offset="1" stop-color="#1E94E9"/>
</linearGradient>
</defs>
</svg>
