<svg width="45" height="45" viewBox="0 0 45 45" fill="none" xmlns="http://www.w3.org/2000/svg">
<rect width="45" height="45" rx="5" fill="#242424"/>
<path d="M27.62 20.7501C27.19 20.7501 26.85 20.4001 26.85 19.9801C26.85 19.6101 26.48 18.8401 25.86 18.1701C25.25 17.5201 24.58 17.1401 24.02 17.1401C23.59 17.1401 23.25 16.7901 23.25 16.3701C23.25 15.9501 23.6 15.6001 24.02 15.6001C25.02 15.6001 26.07 16.1401 26.99 17.1101C27.85 18.0201 28.4 19.1501 28.4 19.9701C28.4 20.4001 28.05 20.7501 27.62 20.7501Z" fill="white"/>
<path d="M31.2298 20.75C30.7998 20.75 30.4598 20.4 30.4598 19.98C30.4598 16.43 27.5698 13.55 24.0298 13.55C23.5998 13.55 23.2598 13.2 23.2598 12.78C23.2598 12.36 23.5998 12 24.0198 12C28.4198 12 31.9998 15.58 31.9998 19.98C31.9998 20.4 31.6498 20.75 31.2298 20.75Z" fill="white"/>
<path opacity="0.4" d="M21.79 24.21L18.52 27.48C18.16 27.16 17.81 26.83 17.47 26.49C16.44 25.45 15.51 24.36 14.68 23.22C13.86 22.08 13.2 20.94 12.72 19.81C12.24 18.67 12 17.58 12 16.54C12 15.86 12.12 15.21 12.36 14.61C12.6 14 12.98 13.44 13.51 12.94C14.15 12.31 14.85 12 15.59 12C15.87 12 16.15 12.06 16.4 12.18C16.66 12.3 16.89 12.48 17.07 12.74L19.39 16.01C19.57 16.26 19.7 16.49 19.79 16.71C19.88 16.92 19.93 17.13 19.93 17.32C19.93 17.56 19.86 17.8 19.72 18.03C19.59 18.26 19.4 18.5 19.16 18.74L18.4 19.53C18.29 19.64 18.24 19.77 18.24 19.93C18.24 20.01 18.25 20.08 18.27 20.16C18.3 20.24 18.33 20.3 18.35 20.36C18.53 20.69 18.84 21.12 19.28 21.64C19.73 22.16 20.21 22.69 20.73 23.22C21.09 23.57 21.44 23.91 21.79 24.21Z" fill="white"/>
<path d="M31.9701 28.33C31.9701 28.61 31.9201 28.9 31.8201 29.18C31.7901 29.26 31.7601 29.34 31.7201 29.42C31.5501 29.78 31.3301 30.12 31.0401 30.44C30.5501 30.98 30.0101 31.37 29.4001 31.62C29.3901 31.62 29.3801 31.63 29.3701 31.63C28.7801 31.87 28.1401 32 27.4501 32C26.4301 32 25.3401 31.76 24.1901 31.27C23.0401 30.78 21.8901 30.12 20.7501 29.29C20.3601 29 19.9701 28.71 19.6001 28.4L22.8701 25.13C23.1501 25.34 23.4001 25.5 23.6101 25.61C23.6601 25.63 23.7201 25.66 23.7901 25.69C23.8701 25.72 23.9501 25.73 24.0401 25.73C24.2101 25.73 24.3401 25.67 24.4501 25.56L25.2101 24.81C25.4601 24.56 25.7001 24.37 25.9301 24.25C26.1601 24.11 26.3901 24.04 26.6401 24.04C26.8301 24.04 27.0301 24.08 27.2501 24.17C27.4701 24.26 27.7001 24.39 27.9501 24.56L31.2601 26.91C31.5201 27.09 31.7001 27.3 31.8101 27.55C31.9101 27.8 31.9701 28.05 31.9701 28.33Z" fill="white"/>
</svg>
