<svg width="9" height="9" viewBox="0 0 9 9" fill="none" xmlns="http://www.w3.org/2000/svg">
<path d="M7.89374 1.61451H6.62636L5.99797 0.671717C5.9825 0.648527 5.96155 0.629506 5.93698 0.616333C5.91241 0.603161 5.88498 0.596243 5.8571 0.596191H3.14158C3.11371 0.596243 3.08627 0.603161 3.0617 0.616333C3.03713 0.629506 3.01619 0.648527 3.00072 0.671717L2.37148 1.61451H1.10495C0.879884 1.61451 0.66404 1.70392 0.504897 1.86306C0.345753 2.0222 0.256348 2.23805 0.256348 2.46311V7.21526C0.256348 7.44033 0.345753 7.65617 0.504897 7.81531C0.66404 7.97446 0.879884 8.06386 1.10495 8.06386H7.89374C8.1188 8.06386 8.33465 7.97446 8.49379 7.81531C8.65293 7.65617 8.74234 7.44033 8.74234 7.21526V2.46311C8.74234 2.23805 8.65293 2.0222 8.49379 1.86306C8.33465 1.70392 8.1188 1.61451 7.89374 1.61451ZM8.4029 7.21526C8.4029 7.3503 8.34926 7.47981 8.25377 7.57529C8.15828 7.67078 8.02878 7.72442 7.89374 7.72442H1.10495C0.969909 7.72442 0.840403 7.67078 0.744917 7.57529C0.649431 7.47981 0.595787 7.3503 0.595787 7.21526V2.46311C0.595787 2.32807 0.649431 2.19857 0.744917 2.10308C0.840403 2.00759 0.969909 1.95395 1.10495 1.95395H2.46271C2.49065 1.95397 2.51818 1.94708 2.54282 1.93391C2.56747 1.92073 2.58849 1.90167 2.604 1.87842L3.23196 0.935631H5.76588L6.39469 1.87842C6.4102 1.90167 6.43121 1.92073 6.45586 1.93391C6.48051 1.94708 6.50803 1.95397 6.53598 1.95395H7.89374C8.02878 1.95395 8.15828 2.00759 8.25377 2.10308C8.34926 2.19857 8.4029 2.32807 8.4029 2.46311V7.21526ZM4.49934 2.97227C4.16367 2.97227 3.83553 3.07181 3.55643 3.2583C3.27733 3.44479 3.05979 3.70986 2.93134 4.01998C2.80288 4.3301 2.76927 4.67135 2.83476 5.00057C2.90024 5.3298 3.06189 5.63221 3.29924 5.86957C3.5366 6.10693 3.83901 6.26857 4.16824 6.33405C4.49746 6.39954 4.83871 6.36593 5.14883 6.23747C5.45896 6.10902 5.72402 5.89148 5.91051 5.61238C6.097 5.33328 6.19654 5.00514 6.19654 4.66947C6.19654 4.21934 6.01773 3.78765 5.69944 3.46937C5.38116 3.15108 4.94947 2.97227 4.49934 2.97227ZM4.49934 6.02723C4.2308 6.02723 3.9683 5.94759 3.74501 5.7984C3.52173 5.64921 3.3477 5.43716 3.24494 5.18906C3.14217 4.94096 3.11528 4.66796 3.16767 4.40458C3.22006 4.1412 3.34938 3.89927 3.53926 3.70939C3.72915 3.5195 3.97108 3.39019 4.23446 3.3378C4.49784 3.28541 4.77084 3.3123 5.01893 3.41506C5.26703 3.51783 5.47909 3.69185 5.62828 3.91514C5.77747 4.13842 5.8571 4.40093 5.8571 4.66947C5.8571 5.02957 5.71405 5.37492 5.45942 5.62955C5.20479 5.88418 4.85944 6.02723 4.49934 6.02723Z" fill="white"/>
</svg>
