<svg width="17" height="16" viewBox="0 0 17 16" fill="none" xmlns="http://www.w3.org/2000/svg">
<path fill-rule="evenodd" clip-rule="evenodd" d="M0.172485 1.45222C0.172485 1.31014 0.228927 1.17388 0.329392 1.07341C0.429858 0.972945 0.566119 0.916504 0.7082 0.916504H2.31534C2.43484 0.916537 2.5509 0.956522 2.64505 1.0301C2.73921 1.10368 2.80607 1.20663 2.83499 1.32258L3.26891 3.05936H15.7082C15.7896 3.05938 15.8699 3.07794 15.943 3.11363C16.0161 3.14932 16.0802 3.2012 16.1303 3.26533C16.1803 3.32946 16.2152 3.40416 16.2321 3.48376C16.249 3.56336 16.2475 3.64576 16.2278 3.72472L14.6207 10.1533C14.5918 10.2692 14.5249 10.3722 14.4308 10.4458C14.3366 10.5193 14.2206 10.5593 14.1011 10.5594H4.4582C4.3387 10.5593 4.22265 10.5193 4.12849 10.4458C4.03433 10.3722 3.96748 10.2692 3.93856 10.1533L1.89749 1.98793H0.7082C0.566119 1.98793 0.429858 1.93149 0.329392 1.83103C0.228927 1.73056 0.172485 1.5943 0.172485 1.45222ZM3.53677 4.13079L4.87606 9.48793H13.6832L15.0225 4.13079H3.53677ZM5.52963 12.7022C5.24547 12.7022 4.97295 12.8151 4.77201 13.016C4.57108 13.217 4.4582 13.4895 4.4582 13.7736C4.4582 14.0578 4.57108 14.3303 4.77201 14.5313C4.97295 14.7322 5.24547 14.8451 5.52963 14.8451C5.81379 14.8451 6.08631 14.7322 6.28724 14.5313C6.48817 14.3303 6.60106 14.0578 6.60106 13.7736C6.60106 13.4895 6.48817 13.217 6.28724 13.016C6.08631 12.8151 5.81379 12.7022 5.52963 12.7022ZM3.38677 13.7736C3.38677 13.2053 3.61254 12.6603 4.0144 12.2584C4.41626 11.8566 4.96131 11.6308 5.52963 11.6308C6.09795 11.6308 6.64299 11.8566 7.04486 12.2584C7.44672 12.6603 7.67249 13.2053 7.67249 13.7736C7.67249 14.342 7.44672 14.887 7.04486 15.2889C6.64299 15.6907 6.09795 15.9165 5.52963 15.9165C4.96131 15.9165 4.41626 15.6907 4.0144 15.2889C3.61254 14.887 3.38677 14.342 3.38677 13.7736ZM13.0296 12.7022C12.7455 12.7022 12.4729 12.8151 12.272 13.016C12.0711 13.217 11.9582 13.4895 11.9582 13.7736C11.9582 14.0578 12.0711 14.3303 12.272 14.5313C12.4729 14.7322 12.7455 14.8451 13.0296 14.8451C13.3138 14.8451 13.5863 14.7322 13.7872 14.5313C13.9882 14.3303 14.1011 14.0578 14.1011 13.7736C14.1011 13.4895 13.9882 13.217 13.7872 13.016C13.5863 12.8151 13.3138 12.7022 13.0296 12.7022ZM10.8868 13.7736C10.8868 13.2053 11.1125 12.6603 11.5144 12.2584C11.9163 11.8566 12.4613 11.6308 13.0296 11.6308C13.5979 11.6308 14.143 11.8566 14.5449 12.2584C14.9467 12.6603 15.1725 13.2053 15.1725 13.7736C15.1725 14.342 14.9467 14.887 14.5449 15.2889C14.143 15.6907 13.5979 15.9165 13.0296 15.9165C12.4613 15.9165 11.9163 15.6907 11.5144 15.2889C11.1125 14.887 10.8868 14.342 10.8868 13.7736Z" fill="#242424"/>
</svg>
