<svg width="20" height="21" viewBox="0 0 20 21" fill="none" xmlns="http://www.w3.org/2000/svg">
<path d="M7.77778 0.0244141H1.11111C0.816426 0.0244141 0.533811 0.141477 0.325437 0.349851C0.117063 0.558225 0 0.84084 0 1.13553V7.80219C0 8.09688 0.117063 8.37949 0.325437 8.58787C0.533811 8.79624 0.816426 8.9133 1.11111 8.9133H7.77778C8.07246 8.9133 8.35508 8.79624 8.56345 8.58787C8.77183 8.37949 8.88889 8.09688 8.88889 7.80219V1.13553C8.88889 0.84084 8.77183 0.558225 8.56345 0.349851C8.35508 0.141477 8.07246 0.0244141 7.77778 0.0244141ZM6.66667 6.69108H2.22222V2.24664H6.66667V6.69108ZM18.8889 11.1355H12.2222C11.9275 11.1355 11.6449 11.2526 11.4365 11.461C11.2282 11.6693 11.1111 11.952 11.1111 12.2466V18.9133C11.1111 19.208 11.2282 19.4906 11.4365 19.699C11.6449 19.9074 11.9275 20.0244 12.2222 20.0244H18.8889C19.1836 20.0244 19.4662 19.9074 19.6746 19.699C19.8829 19.4906 20 19.208 20 18.9133V12.2466C20 11.952 19.8829 11.6693 19.6746 11.461C19.4662 11.2526 19.1836 11.1355 18.8889 11.1355ZM17.7778 17.8022H13.3333V13.3577H17.7778V17.8022ZM15.5556 0.0244141C13.1044 0.0244141 11.1111 2.01775 11.1111 4.46886C11.1111 6.91997 13.1044 8.9133 15.5556 8.9133C18.0067 8.9133 20 6.91997 20 4.46886C20 2.01775 18.0067 0.0244141 15.5556 0.0244141ZM15.5556 6.69108C14.33 6.69108 13.3333 5.69441 13.3333 4.46886C13.3333 3.2433 14.33 2.24664 15.5556 2.24664C16.7811 2.24664 17.7778 3.2433 17.7778 4.46886C17.7778 5.69441 16.7811 6.69108 15.5556 6.69108ZM4.44444 11.1355C1.99333 11.1355 0 13.1289 0 15.58C0 18.0311 1.99333 20.0244 4.44444 20.0244C6.89556 20.0244 8.88889 18.0311 8.88889 15.58C8.88889 13.1289 6.89556 11.1355 4.44444 11.1355ZM4.44444 17.8022C3.21889 17.8022 2.22222 16.8055 2.22222 15.58C2.22222 14.3544 3.21889 13.3577 4.44444 13.3577C5.67 13.3577 6.66667 14.3544 6.66667 15.58C6.66667 16.8055 5.67 17.8022 4.44444 17.8022Z" fill="white"/>
</svg>
