<svg width="40" height="40" viewBox="0 0 40 40" fill="none" xmlns="http://www.w3.org/2000/svg">
<path d="M19.68 39.609C30.5489 39.609 39.36 30.798 39.36 19.929C39.36 9.06005 30.5489 0.249023 19.68 0.249023C8.81103 0.249023 0 9.06005 0 19.929C0 30.798 8.81103 39.609 19.68 39.609Z" fill="#666666"/>
<path d="M28.5728 12.2818C28.8208 12.4848 25.1449 17.4311 20.364 23.3246L17.4624 26.8426L17.0639 27.3237L16.643 26.8877C12.8844 23.0314 10.3511 20.1749 10.5315 19.9945C10.7119 19.8141 13.576 22.3624 17.4248 26.0984L16.6129 26.1811L19.4544 22.6255C24.2353 16.6944 28.3172 12.0789 28.5728 12.2818Z" fill="white"/>
</svg>
