<svg width="25" height="25" viewBox="0 0 25 25" fill="none" xmlns="http://www.w3.org/2000/svg">
<circle cx="12.5" cy="12.5" r="12.5" fill="url(#paint0_linear_204_48436)"/>
<path d="M9.5 6.5C9.10218 6.5 8.72064 6.65804 8.43934 6.93934C8.15804 7.22064 8 7.60218 8 8V17C8 17.3978 8.15804 17.7794 8.43934 18.0607C8.72064 18.342 9.10218 18.5 9.5 18.5H16.625C16.7245 18.5 16.8198 18.4605 16.8902 18.3902C16.9605 18.3198 17 18.2245 17 18.125C17 18.0255 16.9605 17.9302 16.8902 17.8598C16.8198 17.7895 16.7245 17.75 16.625 17.75H9.5C9.30109 17.75 9.11032 17.671 8.96967 17.5303C8.82902 17.3897 8.75 17.1989 8.75 17H16.25C16.4489 17 16.6397 16.921 16.7803 16.7803C16.921 16.6397 17 16.4489 17 16.25V8C17 7.60218 16.842 7.22064 16.5607 6.93934C16.2794 6.65804 15.8978 6.5 15.5 6.5H9.5ZM13.625 10.625C13.625 10.9234 13.5065 11.2095 13.2955 11.4205C13.0845 11.6315 12.7984 11.75 12.5 11.75C12.2016 11.75 11.9155 11.6315 11.7045 11.4205C11.4935 11.2095 11.375 10.9234 11.375 10.625C11.375 10.3266 11.4935 10.0405 11.7045 9.8295C11.9155 9.61853 12.2016 9.5 12.5 9.5C12.7984 9.5 13.0845 9.61853 13.2955 9.8295C13.5065 10.0405 13.625 10.3266 13.625 10.625ZM10.25 13.0625C10.25 12.9133 10.3093 12.7702 10.4148 12.6648C10.5202 12.5593 10.6633 12.5 10.8125 12.5H14.1875C14.3367 12.5 14.4798 12.5593 14.5852 12.6648C14.6907 12.7702 14.75 12.9133 14.75 13.0625V13.25C14.75 13.6478 14.592 14.0294 14.3107 14.3107C14.0294 14.592 13.6478 14.75 13.25 14.75H11.75C11.3522 14.75 10.9706 14.592 10.6893 14.3107C10.408 14.0294 10.25 13.6478 10.25 13.25V13.0625Z" fill="#F6F6F6"/>
<defs>
<linearGradient id="paint0_linear_204_48436" x1="12.5" y1="0" x2="32.7223" y2="12.7969" gradientUnits="userSpaceOnUse">
<stop stop-color="#30BDDC"/>
<stop offset="1" stop-color="#1E94E9"/>
</linearGradient>
</defs>
</svg>
