<svg width="25" height="25" viewBox="0 0 25 25" fill="none" xmlns="http://www.w3.org/2000/svg">
<circle cx="12.5" cy="12.5" r="12.5" fill="url(#paint0_linear_204_48428)"/>
<path d="M17.8906 17.2461H7.10938C6.8501 17.2461 6.64062 17.4556 6.64062 17.7148V18.2422C6.64062 18.3066 6.69336 18.3594 6.75781 18.3594H18.2422C18.3066 18.3594 18.3594 18.3066 18.3594 18.2422V17.7148C18.3594 17.4556 18.1499 17.2461 17.8906 17.2461ZM8.7749 16.0156C8.8042 16.0156 8.8335 16.0127 8.86279 16.0083L11.3267 15.5762C11.356 15.5703 11.3838 15.5571 11.4043 15.5352L17.6138 9.32568C17.6273 9.31213 17.6381 9.29604 17.6455 9.27831C17.6528 9.26059 17.6566 9.2416 17.6566 9.22241C17.6566 9.20323 17.6528 9.18423 17.6455 9.16651C17.6381 9.14879 17.6273 9.13269 17.6138 9.11914L15.1792 6.68311C15.1514 6.65527 15.1147 6.64062 15.0752 6.64062C15.0356 6.64062 14.999 6.65527 14.9712 6.68311L8.76172 12.8926C8.73975 12.9146 8.72656 12.9409 8.7207 12.9702L8.28857 15.4341C8.27432 15.5126 8.27942 15.5933 8.30341 15.6694C8.3274 15.7454 8.36957 15.8145 8.42627 15.8706C8.52295 15.9644 8.64453 16.0156 8.7749 16.0156Z" fill="#F6F6F6"/>
<defs>
<linearGradient id="paint0_linear_204_48428" x1="12.5" y1="0" x2="32.7223" y2="12.7969" gradientUnits="userSpaceOnUse">
<stop stop-color="#30BDDC"/>
<stop offset="1" stop-color="#1E94E9"/>
</linearGradient>
</defs>
</svg>
