<svg width="19" height="19" viewBox="0 0 19 19" fill="none" xmlns="http://www.w3.org/2000/svg">
<path d="M9 2.5H3.16667C2.72464 2.5 2.30072 2.67559 1.98816 2.98816C1.67559 3.30072 1.5 3.72464 1.5 4.16667V15.8333C1.5 16.2754 1.67559 16.6993 1.98816 17.0118C2.30072 17.3244 2.72464 17.5 3.16667 17.5H14.8333C15.2754 17.5 15.6993 17.3244 16.0118 17.0118C16.3244 16.6993 16.5 16.2754 16.5 15.8333V10" stroke="white" stroke-width="2" stroke-linecap="round" stroke-linejoin="round"/>
<path d="M14.3123 2.18769C14.6439 1.85617 15.0935 1.66992 15.5623 1.66992C16.0312 1.66992 16.4808 1.85617 16.8123 2.18769C17.1439 2.51921 17.3301 2.96885 17.3301 3.43769C17.3301 3.90653 17.1439 4.35617 16.8123 4.68769L8.99984 12.5002L5.6665 13.3335L6.49984 10.0002L14.3123 2.18769Z" stroke="white" stroke-width="2" stroke-linecap="round" stroke-linejoin="round"/>
</svg>
