<svg width="18" height="18" viewBox="0 0 18 18" fill="none" xmlns="http://www.w3.org/2000/svg">
<g clip-path="url(#clip0_1454_3592)">
<path d="M9.97004 1.64263e-06C10.2346 1.64263e-06 10.4713 0.164702 10.5604 0.411302L11.1958 2.1726C11.4235 2.2293 11.6188 2.286 11.7844 2.3454C11.9653 2.4102 12.1984 2.5083 12.4864 2.6424L13.966 1.8594C14.0868 1.79542 14.2251 1.77232 14.3601 1.79358C14.4951 1.81484 14.6196 1.8793 14.7148 1.9773L16.0162 3.3228C16.189 3.5019 16.2376 3.7638 16.1404 3.9924L15.4465 5.6187C15.5617 5.8302 15.6535 6.0111 15.7237 6.1623C15.7993 6.327 15.8929 6.5538 16.0045 6.8463L17.6218 7.5393C17.8648 7.6428 18.0151 7.8858 17.9989 8.1459L17.8801 10.0134C17.872 10.1347 17.8285 10.251 17.7549 10.3478C17.6813 10.4446 17.5809 10.5176 17.4661 10.5579L15.9343 11.1024C15.8902 11.3139 15.8443 11.4948 15.7957 11.6478C15.7174 11.8841 15.6279 12.1166 15.5275 12.3444L16.297 14.0454C16.3514 14.1649 16.366 14.2987 16.3388 14.4271C16.3116 14.5555 16.244 14.6719 16.1458 14.7591L14.6824 16.0659C14.5861 16.1516 14.4658 16.2058 14.3378 16.2212C14.2097 16.2367 14.08 16.2126 13.966 16.1523L12.4576 15.3531C12.2217 15.4781 11.9782 15.5884 11.7286 15.6834L11.0698 15.93L10.4848 17.55C10.4415 17.6686 10.3633 17.7714 10.2605 17.8448C10.1577 17.9182 10.0351 17.9588 9.90884 17.9613L8.19884 18C8.06921 18.0034 7.94171 17.9665 7.83388 17.8945C7.72606 17.8225 7.64321 17.7188 7.59674 17.5977L6.90734 15.7734C6.67213 15.693 6.43923 15.606 6.20894 15.5124C6.02059 15.4309 5.83508 15.3429 5.65274 15.2487L3.94274 15.9795C3.83007 16.0276 3.70585 16.0419 3.58521 16.0206C3.46457 15.9993 3.35271 15.9435 3.26324 15.8598L1.99784 14.6727C1.90363 14.5847 1.83947 14.4693 1.81444 14.3429C1.7894 14.2164 1.80476 14.0853 1.85834 13.968L2.59364 12.366C2.49585 12.1763 2.40519 11.9829 2.32184 11.7864C2.22455 11.5459 2.13451 11.3025 2.05184 11.0565L0.440842 10.566C0.309893 10.5264 0.195677 10.4447 0.115933 10.3336C0.0361891 10.2224 -0.00462045 10.088 -0.000157559 9.9513L0.0628424 8.2224C0.0673268 8.1096 0.102565 8.00017 0.164748 7.90594C0.22693 7.81172 0.313689 7.73628 0.415642 7.6878L2.10584 6.876C2.18414 6.5889 2.25254 6.3657 2.31284 6.2028C2.39775 5.98522 2.49204 5.77142 2.59544 5.562L1.86284 4.014C1.80725 3.89645 1.79036 3.76429 1.81462 3.63653C1.83888 3.50877 1.90303 3.392 1.99784 3.303L3.26144 2.1096C3.35002 2.02606 3.46086 1.96989 3.58061 1.94785C3.70036 1.92582 3.82393 1.93886 3.93644 1.9854L5.64464 2.691C5.83364 2.565 6.00464 2.4633 6.15944 2.3814C6.34394 2.2833 6.59054 2.1807 6.90104 2.07L7.49504 0.413102C7.53896 0.291843 7.61923 0.187095 7.7249 0.11316C7.83056 0.0392244 7.95648 -0.000293626 8.08544 1.64263e-06H9.97004ZM9.02144 6.3171C7.52114 6.3171 6.30524 7.5186 6.30524 9.0018C6.30524 10.485 7.52114 11.6874 9.02144 11.6874C10.5208 11.6874 11.7367 10.485 11.7367 9.0018C11.7367 7.5186 10.5217 6.3171 9.02144 6.3171Z" fill="#545454"/>
</g>
<defs>
<clipPath id="clip0_1454_3592">
<rect width="18" height="18" fill="white"/>
</clipPath>
</defs>
</svg>
