<svg width="25" height="25" viewBox="0 0 25 25" fill="none" xmlns="http://www.w3.org/2000/svg">
<path d="M12.01 0.249023C5.38048 0.249023 0 5.6295 0 12.259C0 18.8885 5.38048 24.269 12.01 24.269C18.6395 24.269 24.02 18.8885 24.02 12.259C24.02 5.6295 18.6395 0.249023 12.01 0.249023ZM12.01 21.867C6.71359 21.867 2.402 17.5554 2.402 12.259C2.402 6.96261 6.71359 2.65102 12.01 2.65102C17.3064 2.65102 21.618 6.96261 21.618 12.259C21.618 17.5554 17.3064 21.867 12.01 21.867ZM5.4045 18.8645L14.424 14.673L18.6155 5.65352L9.59599 9.84501L5.4045 18.8645ZM12.01 10.9379C12.7426 10.9379 13.3311 11.5264 13.3311 12.259C13.3311 12.9916 12.7426 13.5801 12.01 13.5801C11.2774 13.5801 10.6889 12.9916 10.6889 12.259C10.6889 11.5264 11.2774 10.9379 12.01 10.9379Z" fill="white"/>
</svg>
