<svg width="18" height="18" viewBox="0 0 18 18" fill="none" xmlns="http://www.w3.org/2000/svg">
<path fill-rule="evenodd" clip-rule="evenodd" d="M17.9997 9.20469C17.9997 8.5665 17.9412 7.95286 17.8327 7.36377H9.18359V10.8451H14.1259C13.9131 11.9702 13.266 12.9233 12.2934 13.5615V15.8197H15.2613C16.9978 14.2529 17.9997 11.9456 17.9997 9.20469Z" fill="#4285F4"/>
<path fill-rule="evenodd" clip-rule="evenodd" d="M9.18271 18C11.6622 18 13.741 17.1941 15.2605 15.8195L12.2925 13.5613C11.4702 14.1013 10.4183 14.4204 9.18271 14.4204C6.79085 14.4204 4.76632 12.8372 4.04417 10.71H0.976074V13.0418C2.48716 15.9832 5.59283 18 9.18271 18Z" fill="#34A853"/>
<path fill-rule="evenodd" clip-rule="evenodd" d="M4.04488 10.7098C3.86121 10.1698 3.75685 9.59303 3.75685 8.99984C3.75685 8.40666 3.86121 7.82984 4.04488 7.28984V4.95801H0.976782C0.354814 6.17301 0 7.54756 0 8.99984C0 10.4521 0.354814 11.8267 0.976782 13.0417L4.04488 10.7098Z" fill="#FBBC05"/>
<path fill-rule="evenodd" clip-rule="evenodd" d="M9.18271 3.57956C10.531 3.57956 11.7415 4.03365 12.6933 4.92547L15.3272 2.3441C13.7368 0.891822 11.6581 0 9.18271 0C5.59283 0 2.48716 2.01683 0.976074 4.9582L4.04417 7.29003C4.76632 5.16275 6.79085 3.57956 9.18271 3.57956Z" fill="#EA4335"/>
</svg>
