<svg width="19" height="24" viewBox="0 0 19 24" fill="none" xmlns="http://www.w3.org/2000/svg">
<path fill-rule="evenodd" clip-rule="evenodd" d="M0.92214 18.2992C0.68134 18.0582 0.56094 17.723 0.590753 17.3833L1.02534 12.597C1.0735 12.0725 1.30513 11.5778 1.67894 11.2036L11.9944 0.878142C12.7993 0.0689548 14.259 0.109127 15.1087 0.957339L18.2483 4.09997L18.2494 4.10112C19.1266 4.98032 19.1622 6.37832 18.3274 7.2162L8.01083 17.5428C7.63817 17.9158 7.14395 18.1477 6.61878 18.1959L1.83718 18.6309C1.80278 18.6332 1.76838 18.6343 1.73283 18.6343C1.43126 18.6343 1.13886 18.515 0.92214 18.2992ZM14.368 7.93586L11.2777 4.84259L13.5114 2.60556L16.6005 5.69768L14.368 7.93586ZM6.41125 15.9084L2.99762 16.2194L3.30034 12.8266L9.74117 6.37947L12.8326 9.47504L6.41125 15.9084ZM17.7862 23.2255C18.4168 23.2255 18.9328 22.709 18.9328 22.0777C18.9328 21.4476 18.4168 20.9299 17.7862 20.9299H1.73285C1.10333 20.9299 0.586182 21.4476 0.586182 22.0777C0.586182 22.709 1.10333 23.2255 1.73285 23.2255H17.7862Z" fill="#CDCDCD"/>
</svg>
