<svg width="25" height="25" viewBox="0 0 25 25" fill="none" xmlns="http://www.w3.org/2000/svg">
<circle cx="12.5" cy="12.5" r="12.5" fill="url(#paint0_linear_204_48500)"/>
<path d="M8.75 6.875C8.25272 6.875 7.77581 7.07254 7.42417 7.42417C7.07254 7.77581 6.875 8.25272 6.875 8.75V16.25C6.875 16.7473 7.07254 17.2242 7.42417 17.5758C7.77581 17.9275 8.25272 18.125 8.75 18.125H11.875C12.0408 18.125 12.1997 18.0592 12.3169 17.9419C12.4342 17.8247 12.5 17.6658 12.5 17.5C12.5 17.3342 12.4342 17.1753 12.3169 17.0581C12.1997 16.9408 12.0408 16.875 11.875 16.875H8.75C8.58424 16.875 8.42527 16.8092 8.30806 16.6919C8.19085 16.5747 8.125 16.4158 8.125 16.25V8.75C8.125 8.58424 8.19085 8.42527 8.30806 8.30806C8.42527 8.19085 8.58424 8.125 8.75 8.125H11.875C12.0408 8.125 12.1997 8.05915 12.3169 7.94194C12.4342 7.82473 12.5 7.66576 12.5 7.5C12.5 7.33424 12.4342 7.17527 12.3169 7.05806C12.1997 6.94085 12.0408 6.875 11.875 6.875H8.75Z" fill="#F6F6F6"/>
<path d="M14.5581 9.55799C14.6753 9.44082 14.8343 9.375 15 9.375C15.1657 9.375 15.3247 9.44082 15.4419 9.55799L17.9419 12.058C18.059 12.1752 18.1249 12.3341 18.1249 12.4999C18.1249 12.6656 18.059 12.8245 17.9419 12.9417L15.4419 15.4417C15.324 15.5556 15.1661 15.6186 15.0022 15.6172C14.8384 15.6157 14.6816 15.55 14.5657 15.4341C14.4499 15.3182 14.3841 15.1615 14.3827 14.9976C14.3813 14.8337 14.4443 14.6759 14.5581 14.558L15.9913 13.1249H11.25C11.0842 13.1249 10.9253 13.059 10.8081 12.9418C10.6908 12.8246 10.625 12.6656 10.625 12.4999C10.625 12.3341 10.6908 12.1751 10.8081 12.0579C10.9253 11.9407 11.0842 11.8749 11.25 11.8749H15.9913L14.5581 10.4417C14.441 10.3245 14.3751 10.1656 14.3751 9.99987C14.3751 9.83414 14.441 9.6752 14.5581 9.55799Z" fill="#F6F6F6"/>
<defs>
<linearGradient id="paint0_linear_204_48500" x1="12.5" y1="0" x2="32.7223" y2="12.7969" gradientUnits="userSpaceOnUse">
<stop stop-color="#FF5353"/>
<stop offset="1" stop-color="#E91E1E"/>
</linearGradient>
</defs>
</svg>
