<svg width="390" height="481" viewBox="0 0 390 481" fill="none" xmlns="http://www.w3.org/2000/svg">
<path d="M273.585 61.4249C299.325 73.7099 324.48 89.6999 332.475 112.515C340.47 135.525 331.11 165.165 329.355 194.025C327.6 222.69 333.255 250.38 325.65 273.975C318.045 297.375 297.18 316.485 273.195 324.09C249.21 331.89 222.105 327.99 193.83 330.135C165.555 332.085 136.305 339.885 110.565 333.255C84.8252 326.43 62.9852 305.175 54.4052 279.63C45.8252 254.28 50.5052 224.64 54.6002 197.34C58.8902 170.235 62.4002 145.275 70.2002 118.56C78.0002 91.8449 90.0902 63.1799 111.735 48.555C133.185 33.93 164.19 33.3449 192.855 37.0499C221.52 40.9499 247.845 49.3349 273.585 61.4249Z" fill="black"/>
<path d="M220.363 244.987H191.498V276.225H220.363V244.987Z" fill="#202020"/>
<path opacity="0.1" d="M220.363 244.987H191.498V276.225H220.363V244.987Z" fill="#FF0000"/>
<path d="M176.591 276.225H191.498V244.987H176.591V276.225Z" fill="#202020"/>
<path opacity="0.32" d="M176.591 276.225H191.498V244.987H176.591V276.225Z" fill="#FF0000"/>
<path d="M203.48 251.737H204.094H204.553L204.816 251.218L205.183 251.737L205.681 250.667L206.152 251.737H207.504H208.117L208.342 251.026L208.555 251.737H208.955V244.987H203.48V251.737Z" fill="#FF0000"/>
<path d="M177.622 274.075C178.716 271.85 179.811 269.621 180.906 267.389L184.141 260.67L187.327 253.947C188.389 251.696 189.437 249.436 190.47 247.164C189.375 249.389 188.28 251.618 187.185 253.85L183.95 260.569L180.764 267.319C179.709 269.555 178.662 271.807 177.622 274.075Z" fill="#202020"/>
<path d="M177.622 247.137C178.658 249.405 179.705 251.666 180.764 253.92L183.955 260.67L187.191 267.389C188.285 269.624 189.38 271.853 190.475 274.075C189.439 271.807 188.391 269.546 187.333 267.292L184.141 260.542L180.906 253.823C179.819 251.588 178.724 249.359 177.622 247.137Z" fill="#202020"/>
<path d="M233.727 213.749H204.861V244.987H233.727V213.749Z" fill="#202020"/>
<path opacity="0.1" d="M233.727 213.749H204.861V244.987H233.727V213.749Z" fill="#FF0000"/>
<path d="M189.96 244.992H204.867V213.754H189.96V244.992Z" fill="#202020"/>
<path opacity="0.32" d="M189.96 244.992H204.867V213.754H189.96V244.992Z" fill="#FF0000"/>
<path d="M216.85 220.499H217.457H217.917L218.18 219.98L218.547 220.499L219.045 219.429L219.516 220.499H220.868H221.486L221.711 219.788L221.919 220.499H222.318V213.749H216.85V220.499Z" fill="#FF0000"/>
<path d="M190.984 242.837C192.079 240.615 193.174 238.386 194.268 236.15L197.504 229.432L200.717 222.687C201.779 220.43 202.828 218.169 203.865 215.904C202.77 218.122 201.675 220.349 200.58 222.585L197.345 229.304L194.148 236.054C193.075 238.308 192.02 240.569 190.984 242.837Z" fill="#202020"/>
<path d="M190.984 215.904C192.024 218.172 193.071 220.433 194.126 222.687L197.318 229.432L200.553 236.15C201.648 238.386 202.743 240.615 203.837 242.837C202.797 240.569 201.748 238.308 200.69 236.054L197.498 229.304L194.263 222.585C193.186 220.349 192.093 218.122 190.984 215.904Z" fill="#202020"/>
<path d="M257.452 244.987H228.586V276.225H257.452V244.987Z" fill="#202020"/>
<path opacity="0.1" d="M257.452 244.987H228.586V276.225H257.452V244.987Z" fill="#FF0000"/>
<path d="M213.68 276.225H228.586V244.987H213.68V276.225Z" fill="#202020"/>
<path opacity="0.32" d="M213.68 276.225H228.586V244.987H213.68V276.225Z" fill="#FF0000"/>
<path d="M240.569 251.737H241.182H241.642L241.905 251.218L242.271 251.737L242.77 250.667L243.24 251.737H244.592H245.211L245.43 251.026L245.643 251.737H246.043V244.987H240.569V251.737Z" fill="#FF0000"/>
<path d="M214.709 274.075C215.804 271.85 216.899 269.621 217.994 267.389L221.229 260.67L224.415 253.947C225.477 251.696 226.524 249.436 227.557 247.164C226.462 249.389 225.367 251.618 224.273 253.85L221.037 260.569L217.851 267.319C216.796 269.555 215.749 271.807 214.709 274.075Z" fill="#202020"/>
<path d="M214.709 247.137C215.745 249.405 216.793 251.666 217.851 253.92L221.043 260.67L224.256 267.389C225.351 269.624 226.446 271.853 227.541 274.075C226.504 271.807 225.457 269.546 224.398 267.292L221.207 260.542L217.972 253.823C216.899 251.588 215.811 249.359 214.709 247.137Z" fill="#202020"/>
<path d="M144.737 276.594C145.788 276.92 175.672 276.546 176.8 275.824C177.232 275.556 177.429 271.299 177.517 266.148V265.987C177.517 264.917 177.55 263.847 177.555 262.724C177.555 262.569 177.555 262.419 177.555 262.264L176.104 247.116L156.113 247.314L158.083 262.291V262.885L158.204 265.992V266.313C158.204 266.313 146.828 271.454 145.673 272.379C144.518 273.304 143.691 276.268 144.737 276.594Z" fill="#AD6359"/>
<path d="M144.737 276.594C145.788 276.92 175.672 276.546 176.8 275.824C177.232 275.556 177.429 271.299 177.517 266.148V265.987C177.517 264.917 177.55 263.847 177.555 262.724C177.555 262.569 177.555 262.419 177.555 262.264L158.083 262.318V262.911L158.204 266.019V266.34C158.204 266.34 146.828 271.481 145.673 272.406C144.518 273.331 143.691 276.268 144.737 276.594Z" fill="#EBEBEB"/>
<path d="M144.736 276.589C145.284 276.76 153.391 276.744 161.329 276.589C162.922 276.562 164.509 276.524 166.026 276.482C171.681 276.332 176.361 276.102 176.794 275.829C177.226 275.556 177.418 271.421 177.505 266.367C177.505 266.297 177.505 266.222 177.505 266.153C177.505 266.083 177.505 266.04 177.505 265.987L158.247 266.024V266.345C158.247 266.345 146.877 271.486 145.722 272.406C144.567 273.326 143.685 276.262 144.736 276.589Z" fill="#FF0000"/>
<path d="M145.06 275.455C150.096 275.273 170.428 274.989 175.42 275.182C175.458 275.182 175.458 275.209 175.42 275.214C170.433 275.503 150.102 275.621 145.06 275.535C144.956 275.535 144.956 275.46 145.06 275.455Z" fill="#263238"/>
<path d="M156.091 266.099C158.067 265.714 160.47 265.981 162.03 267.34C162.085 267.394 162.03 267.474 161.943 267.458C160.042 266.884 158.084 266.511 156.102 266.345C156.085 266.346 156.069 266.343 156.053 266.338C156.038 266.332 156.023 266.324 156.011 266.313C155.999 266.302 155.989 266.289 155.982 266.274C155.975 266.259 155.971 266.244 155.97 266.227C155.97 266.211 155.972 266.195 155.978 266.18C155.983 266.165 155.992 266.151 156.003 266.139C156.015 266.127 156.028 266.117 156.043 266.11C156.058 266.104 156.074 266.1 156.091 266.099Z" fill="#263238"/>
<path d="M154.667 266.96C156.649 266.575 159.046 266.843 160.606 268.201C160.667 268.255 160.606 268.335 160.524 268.319C158.622 267.746 156.662 267.373 154.678 267.206C154.644 267.208 154.612 267.196 154.587 267.174C154.563 267.152 154.548 267.121 154.547 267.089C154.545 267.056 154.557 267.024 154.58 267C154.602 266.976 154.634 266.962 154.667 266.96Z" fill="#263238"/>
<path d="M153.249 267.822C155.225 267.437 157.656 267.704 159.189 269.063C159.249 269.116 159.189 269.196 159.106 269.175C157.203 268.606 155.243 268.235 153.26 268.068C153.227 268.069 153.194 268.058 153.169 268.036C153.145 268.013 153.13 267.983 153.129 267.95C153.127 267.917 153.139 267.886 153.162 267.862C153.184 267.837 153.216 267.823 153.249 267.822Z" fill="#263238"/>
<path d="M161.329 276.583C162.922 276.556 164.51 276.519 166.026 276.476C171.681 276.326 176.361 276.096 176.794 275.824C177.226 275.551 177.418 271.416 177.505 266.361C177.505 266.292 177.505 266.217 177.505 266.147C177.505 266.078 177.505 266.035 177.505 265.981C174.856 267.789 165.555 273.839 161.329 276.583Z" fill="#263238"/>
<path d="M156.84 266.083H178.365C178.365 266.083 174.029 216.969 174.199 216.108C174.412 215.011 175.688 210.042 177.374 203.543C177.921 201.51 178.469 199.333 179.071 197.07C180.675 190.962 182.449 184.286 183.998 178.472L188.125 163.013H169.863C169.863 163.013 167.739 169.598 165.062 178.167C160.683 192.074 154.864 211.251 154.289 215.91C153.353 223.42 156.84 266.083 156.84 266.083Z" fill="#263238"/>
<path d="M157.875 262.505C161.159 262.44 160.218 262.414 163.508 262.382C165.112 262.382 175.688 262.28 177.193 262.521C177.202 262.521 177.21 262.524 177.217 262.53C177.223 262.536 177.226 262.544 177.226 262.553C177.226 262.561 177.223 262.569 177.217 262.576C177.21 262.582 177.202 262.585 177.193 262.585C175.693 262.831 165.117 262.74 163.508 262.724C160.223 262.692 161.165 262.665 157.875 262.601C157.815 262.59 157.815 262.505 157.875 262.505Z" fill="#37474F"/>
<path d="M170.231 213.106C170.937 210.068 171.993 207.089 172.908 204.104C174.776 198.042 176.654 191.979 178.541 185.917C179.482 182.89 180.427 179.859 181.376 176.824C181.858 175.294 182.341 173.766 182.827 172.24C183.309 170.747 183.851 169.266 184.283 167.763C184.458 167.148 184.557 167.485 184.332 168.266C183.878 169.833 183.429 171.405 182.964 172.967C182.026 176.077 181.092 179.178 180.161 182.269C178.3 188.431 176.418 194.588 174.517 200.739C173.568 203.824 172.619 206.909 171.67 209.993C171.189 211.461 170.799 212.956 170.504 214.47C170.252 216.054 170.188 217.66 170.313 219.258C170.521 222.467 170.904 225.676 171.205 228.886C171.506 232.095 171.818 235.305 172.119 238.514C172.725 244.933 173.327 251.336 173.926 257.722C173.997 258.535 174.074 259.327 174.134 260.156C174.134 260.429 173.734 260.408 173.707 260.156C172.995 253.828 172.453 247.479 171.846 241.141C171.238 234.802 170.636 228.522 170.034 222.21C169.88 220.606 169.711 219.044 169.705 217.45C169.715 215.987 169.891 214.531 170.231 213.106Z" fill="#37474F"/>
<path d="M172.015 163.013C173.285 172.588 175.699 190.534 177.457 203.553C181.557 187.768 188.186 163.013 188.186 163.013H172.015Z" fill="#37474F"/>
<path d="M167.537 276.872C168.583 277.209 198.467 276.936 199.6 276.219C200.032 275.952 200.246 271.694 200.355 266.543V266.383C200.355 265.313 200.399 264.243 200.404 263.12C200.404 262.97 200.404 262.815 200.404 262.665C200.476 255.23 199.928 247.517 199.928 247.517L180.391 247.64L180.938 262.649V263.243L181.048 266.35V266.666C181.048 266.666 169.656 271.769 168.495 272.689C167.335 273.609 166.491 276.546 167.537 276.872Z" fill="#AD6359"/>
<path d="M167.537 276.872C168.583 277.209 198.467 276.936 199.6 276.219C200.032 275.952 200.246 271.694 200.355 266.543V266.383C200.355 265.313 200.399 264.243 200.404 263.12C200.404 262.97 200.404 262.815 200.404 262.665H180.938V263.259L181.047 266.367V266.682C181.047 266.682 169.656 271.785 168.495 272.705C167.335 273.625 166.491 276.546 167.537 276.872Z" fill="#EBEBEB"/>
<path d="M167.538 276.872C168.583 277.209 198.467 276.936 199.601 276.22C200.033 275.952 200.246 271.694 200.356 266.543V266.383L181.076 266.351V266.666C181.076 266.666 169.684 271.769 168.523 272.689C167.363 273.609 166.492 276.546 167.538 276.872Z" fill="#FF0000"/>
<path d="M167.871 275.738C172.908 275.572 193.239 275.364 198.226 275.572C198.27 275.572 198.27 275.599 198.226 275.604C193.239 275.877 172.908 275.92 167.871 275.818C167.762 275.818 167.756 275.744 167.871 275.738Z" fill="#263238"/>
<path d="M178.929 266.42C180.905 266.04 183.309 266.318 184.863 267.682C184.918 267.736 184.863 267.816 184.776 267.8C182.878 267.217 180.922 266.837 178.94 266.666C178.924 266.667 178.907 266.664 178.892 266.659C178.876 266.653 178.862 266.645 178.849 266.634C178.837 266.623 178.827 266.61 178.82 266.595C178.813 266.58 178.809 266.565 178.809 266.548C178.808 266.532 178.811 266.516 178.816 266.501C178.822 266.486 178.831 266.472 178.842 266.46C178.853 266.448 178.866 266.438 178.881 266.431C178.896 266.425 178.913 266.421 178.929 266.42Z" fill="#263238"/>
<path d="M177.505 267.276C179.482 266.896 181.885 267.174 183.439 268.538C183.5 268.592 183.439 268.672 183.357 268.656C181.458 268.073 179.499 267.693 177.516 267.522C177.483 267.523 177.45 267.512 177.426 267.49C177.401 267.468 177.386 267.437 177.385 267.404C177.383 267.372 177.395 267.34 177.418 267.316C177.44 267.292 177.472 267.277 177.505 267.276Z" fill="#263238"/>
<path d="M176.082 268.132C178.058 267.752 180.461 268.03 182.016 269.394C182.076 269.448 182.016 269.528 181.934 269.512C180.031 268.932 178.069 268.556 176.082 268.389C176.047 268.389 176.014 268.375 175.989 268.351C175.965 268.327 175.951 268.294 175.951 268.26C175.951 268.226 175.965 268.194 175.989 268.17C176.014 268.145 176.047 268.132 176.082 268.132Z" fill="#263238"/>
<path d="M170.307 163.013C170.307 163.013 170.723 171.54 172.721 178.295C172.885 178.83 173.055 179.403 173.268 179.932C175.099 180.652 176.858 181.535 178.523 182.569C178.523 182.569 178.731 189.432 178.945 197.081C179.175 205.639 179.421 215.177 179.367 217.199C179.186 224.773 180.335 266.41 180.335 266.41L201.855 266.495C201.855 266.495 197.963 220.002 197.99 217.231C198.034 212.77 196.95 193.069 196.112 178.718C195.603 169.865 195.182 163.04 195.182 163.04L170.307 163.013Z" fill="#263238"/>
<path d="M181.283 262.654C184.567 262.601 183.626 262.569 186.916 262.553C188.525 262.553 199.096 262.499 200.601 262.745C200.61 262.745 200.618 262.749 200.624 262.755C200.631 262.761 200.634 262.769 200.634 262.777C200.634 262.786 200.631 262.794 200.624 262.8C200.618 262.806 200.61 262.81 200.601 262.81C199.096 263.05 188.525 262.917 186.916 262.895C183.631 262.847 184.573 262.826 181.283 262.745C181.273 262.742 181.265 262.736 181.259 262.728C181.253 262.72 181.25 262.71 181.25 262.7C181.25 262.69 181.253 262.68 181.259 262.672C181.265 262.664 181.273 262.658 181.283 262.654Z" fill="#37474F"/>
<path d="M193.6 166.051C193.994 177.782 194.416 189.512 194.952 201.237C195.489 212.962 196.217 224.773 197.224 236.498C197.772 243.056 198.319 252.283 199.042 258.825C199.042 258.868 198.976 258.884 198.97 258.825C197.405 247.191 196.534 232.802 195.763 221.093C194.991 209.384 194.471 197.659 194.06 185.934C193.83 179.301 193.655 172.663 193.447 166.03C193.43 165.95 193.6 165.955 193.6 166.051Z" fill="#37474F"/>
<path d="M172.579 179.413C174.721 180.283 176.78 181.335 178.732 182.558C178.747 182.568 178.758 182.582 178.763 182.599C178.768 182.616 178.766 182.634 178.758 182.65C178.749 182.666 178.735 182.678 178.718 182.683C178.701 182.689 178.683 182.689 178.666 182.681C176.591 181.697 174.473 180.75 172.453 179.654C172.42 179.638 172.395 179.609 172.384 179.575C172.373 179.541 172.376 179.504 172.393 179.472C172.409 179.44 172.438 179.416 172.473 179.405C172.508 179.394 172.546 179.397 172.579 179.413Z" fill="#37474F"/>
<path d="M171.336 169.319C171.522 170.298 171.763 171.266 171.982 172.24C172.201 173.213 172.332 174.08 172.579 174.984C172.782 175.855 173.236 176.651 173.887 177.279C174.254 177.616 174.659 177.91 175.048 178.215L175.705 178.702C175.705 178.573 175.655 178.439 175.628 178.306C175.562 177.937 175.497 177.568 175.436 177.193C175.294 176.369 175.157 175.546 175.031 174.722C174.774 173.117 174.544 171.459 174.194 169.854C174.197 169.844 174.204 169.834 174.214 169.828C174.223 169.821 174.234 169.817 174.246 169.817C174.257 169.817 174.268 169.821 174.278 169.828C174.287 169.834 174.294 169.844 174.298 169.854C174.714 171.459 175.168 173.021 175.529 174.626C175.705 175.412 176.334 179.301 176.367 179.573C176.4 179.846 176.416 180.146 176.427 180.429C176.466 180.719 176.466 181.012 176.427 181.301C176.422 181.314 176.413 181.325 176.401 181.332C176.389 181.34 176.376 181.344 176.362 181.344C176.347 181.344 176.334 181.34 176.322 181.332C176.31 181.325 176.301 181.314 176.296 181.301C176.173 181.032 176.089 180.748 176.044 180.456C175.967 180.178 175.907 179.921 175.852 179.616C175.852 179.515 175.82 179.408 175.809 179.306C175.414 179.071 175.048 178.771 174.681 178.504C174.314 178.236 173.887 177.969 173.515 177.648C172.823 177.079 172.324 176.318 172.086 175.465C171.845 174.55 171.687 173.616 171.615 172.673C171.489 171.566 171.396 170.459 171.238 169.357C171.227 169.282 171.325 169.255 171.336 169.319Z" fill="#37474F"/>
<path d="M178.464 138.038C177.495 141.724 173.641 150.138 167.165 157.081C164.663 159.755 144.857 162.596 142.766 162.013C141.299 161.601 137.007 149.223 138.387 148.185C141.009 146.233 159.588 148.501 160.322 148.03C161.45 147.308 168.802 141.462 173.384 136.129C176.75 132.24 180.073 131.903 178.464 138.038Z" fill="#AD6359"/>
<path d="M174.231 149.057L162.253 145.618C162.253 145.618 171.795 135.99 175.392 133.904C179.47 131.582 179.771 134.128 178.676 138.381C177.581 142.633 174.231 149.057 174.231 149.057Z" fill="#FF0000"/>
<path d="M164.586 144.024C165.019 144.077 168.769 145.094 169.579 145.329C170.389 145.564 173.712 146.511 174.506 146.821C174.512 146.824 174.517 146.828 174.52 146.833C174.524 146.838 174.525 146.845 174.525 146.851C174.525 146.857 174.524 146.863 174.52 146.868C174.517 146.874 174.512 146.878 174.506 146.88C173.646 146.725 170.296 145.784 169.464 145.559C168.632 145.334 164.948 144.249 164.537 144.077C164.51 144.061 164.532 144.019 164.586 144.024Z" fill="#263238"/>
<path d="M169.612 147.725L174.232 149.052C174.232 149.052 177.604 142.633 178.715 138.354C179.526 135.246 179.569 133.048 177.944 133.005L169.612 147.725Z" fill="#263238"/>
<path d="M197.158 171.48L166.097 171.336C166.097 171.935 172.835 137.412 176.082 133.278C176.777 132.39 181.523 131.272 183.664 133.224C193.052 141.761 197.158 171.865 197.158 171.48Z" fill="#FF0000"/>
<path opacity="0.1" d="M173.038 142.729L177.007 142.997L176.766 148.116L174.04 148.822L172.48 147.613L173.038 142.729Z" fill="black"/>
<path d="M178.162 137.423C179.64 137.771 181.825 135.032 182.892 132.968C182.963 132.829 182.695 131.363 182.454 129.587C182.317 128.517 182.186 127.298 182.148 126.185C182.148 125.955 175.069 128.111 175.069 128.111C175.524 129.488 175.804 130.914 175.901 132.358C175.907 132.512 175.896 132.666 175.869 132.818C175.869 132.818 175.869 132.861 175.869 132.893C175.748 133.765 176.58 137.049 178.162 137.423Z" fill="#AD6359"/>
<path d="M175.869 132.818C175.869 132.818 175.869 132.866 175.869 132.893C176.113 132.912 176.358 132.912 176.603 132.893C180.796 132.668 181.732 127.496 181.902 126.185C180.637 126.404 175.075 128.1 175.075 128.1C175.53 129.477 175.812 130.903 175.913 132.347C175.913 132.505 175.899 132.663 175.869 132.818Z" fill="#263238"/>
<path d="M183.473 117.846C184.075 120.365 182.252 127.41 180.347 128.881C177.61 131.02 173.307 130.956 171.511 127.768C169.771 124.677 172.311 115.54 174.418 114.225C177.517 112.288 182.58 114.128 183.473 117.846Z" fill="#AD6359"/>
<path d="M176.236 121.649C176.236 121.649 176.269 121.681 176.263 121.702C176.127 122.173 176.055 122.735 176.455 122.997C176.455 122.997 176.455 123.029 176.455 123.024C175.924 122.82 176.033 122.077 176.236 121.649Z" fill="#263238"/>
<path d="M176.799 121.259C177.593 121.392 177.265 122.938 176.531 122.815C175.797 122.692 176.131 121.152 176.799 121.259Z" fill="#263238"/>
<path d="M173.597 121.157C173.597 121.157 173.553 121.157 173.548 121.189C173.46 121.676 173.279 122.21 172.803 122.259V122.285C173.345 122.36 173.592 121.627 173.597 121.157Z" fill="#263238"/>
<path d="M173.263 120.569C172.486 120.349 172.097 121.885 172.82 122.083C173.542 122.28 173.893 120.756 173.263 120.569Z" fill="#263238"/>
<path d="M177.571 120.681C177.383 120.578 177.2 120.465 177.024 120.344C176.807 120.252 176.627 120.094 176.509 119.894C176.487 119.824 176.488 119.749 176.513 119.68C176.537 119.61 176.584 119.551 176.646 119.509C176.785 119.449 176.937 119.425 177.087 119.44C177.238 119.455 177.382 119.509 177.505 119.595C177.78 119.734 177.991 119.969 178.097 120.253C178.12 120.321 178.122 120.395 178.102 120.465C178.082 120.534 178.041 120.596 177.984 120.643C177.927 120.689 177.857 120.717 177.784 120.724C177.71 120.731 177.636 120.716 177.571 120.681Z" fill="#263238"/>
<path d="M172.798 119.686C173.019 119.689 173.24 119.678 173.46 119.654C173.696 119.673 173.933 119.617 174.133 119.493C174.187 119.442 174.223 119.375 174.234 119.303C174.244 119.23 174.23 119.156 174.194 119.092C174.102 118.974 173.981 118.883 173.841 118.826C173.702 118.77 173.549 118.751 173.4 118.771C173.092 118.77 172.794 118.879 172.562 119.076C172.513 119.125 172.479 119.186 172.464 119.254C172.449 119.321 172.455 119.391 172.48 119.455C172.504 119.519 172.548 119.575 172.604 119.616C172.66 119.657 172.728 119.681 172.798 119.686Z" fill="#263238"/>
<path d="M175.896 126.19C175.754 126.276 175.606 126.41 175.425 126.388C175.243 126.347 175.071 126.269 174.922 126.158C174.889 126.158 174.922 126.158 174.922 126.158C174.97 126.264 175.046 126.355 175.143 126.423C175.239 126.49 175.351 126.532 175.469 126.543C175.574 126.537 175.674 126.501 175.759 126.44C175.843 126.38 175.908 126.297 175.946 126.201C175.945 126.196 175.942 126.191 175.938 126.187C175.935 126.183 175.93 126.181 175.925 126.18C175.919 126.179 175.914 126.179 175.909 126.181C175.904 126.183 175.899 126.186 175.896 126.19Z" fill="#263238"/>
<path d="M175.683 124.65C175.519 124.815 175.321 124.946 175.102 125.032C174.884 125.119 174.649 125.16 174.413 125.153C174.209 125.15 174.006 125.118 173.811 125.057C173.772 125.049 173.733 125.038 173.696 125.024L173.592 124.982C173.567 124.972 173.546 124.955 173.532 124.933C173.518 124.911 173.512 124.885 173.515 124.859C173.513 124.843 173.513 124.826 173.515 124.81V124.773C173.587 124.399 173.74 123.848 173.74 123.848C173.587 123.885 172.82 124.051 172.869 123.848C173.267 122.192 173.834 120.579 174.561 119.034C174.567 119.026 174.576 119.02 174.586 119.017C174.596 119.015 174.607 119.015 174.617 119.019C174.626 119.022 174.635 119.029 174.64 119.037C174.646 119.046 174.649 119.056 174.649 119.066C174.293 120.595 173.663 122.056 173.28 123.586C173.554 123.523 173.836 123.498 174.118 123.511C174.167 123.537 173.8 124.58 173.778 124.746C174.081 124.84 174.4 124.873 174.716 124.842C175.033 124.812 175.339 124.719 175.618 124.57C175.689 124.58 175.722 124.618 175.683 124.65Z" fill="#263238"/>
<path d="M174.073 124.917C174.224 125.222 174.452 125.483 174.735 125.677C174.898 125.779 175.089 125.829 175.283 125.821C175.693 125.795 175.781 125.447 175.77 125.131C175.764 124.965 175.738 124.8 175.693 124.639C175.197 124.899 174.629 124.996 174.073 124.917Z" fill="#263238"/>
<path d="M174.736 125.677C174.899 125.779 175.09 125.829 175.283 125.821C175.694 125.795 175.781 125.447 175.77 125.131C175.56 125.095 175.344 125.129 175.156 125.228C174.968 125.327 174.82 125.485 174.736 125.677Z" fill="#FF98B9"/>
<path d="M172.874 116.364C173.274 115.829 173.712 115.257 174.111 115.214C174.511 115.172 174.571 116.108 175.409 116.338C176.542 116.642 177.319 115.722 178.95 115.936C181.293 116.241 181.917 118.333 181.299 121.548C180.751 124.42 182.465 125.04 182.465 125.04C182.465 125.04 184.857 118.948 183.478 116.482C182.098 114.016 178.113 112.267 174.889 113.701C173.712 114.23 172.874 116.364 172.874 116.364Z" fill="#263238"/>
<path d="M181.223 123.617C181.223 123.617 183.073 121.478 184.091 122.12C185.11 122.762 183.577 126.019 182.279 126.367C182.117 126.422 181.945 126.444 181.774 126.433C181.602 126.421 181.435 126.376 181.282 126.3C181.129 126.224 180.993 126.119 180.882 125.991C180.771 125.863 180.688 125.714 180.637 125.554L181.223 123.617Z" fill="#AD6359"/>
<path d="M173.345 114.979C174.056 114.946 177.834 115.776 179.399 116.819C180.965 117.862 183.516 120.836 183.647 120.991C183.779 121.146 185.777 115.177 180.91 113.096C175.644 110.828 173.345 114.979 173.345 114.979Z" fill="#FF0000"/>
<path d="M183.424 120.686C183.424 120.686 180.927 115.722 179.258 114.38C177.588 113.037 173.521 111.705 170.718 112.304C168.528 112.791 172.946 116.257 172.946 116.257C173.033 116.059 173.166 115.884 173.334 115.745C173.502 115.605 173.701 115.506 173.915 115.455C175.273 115.203 177.588 116.033 178.842 116.739C180.462 117.627 183.424 120.686 183.424 120.686Z" fill="#FF0000"/>
<path opacity="0.2" d="M183.424 120.686C183.424 120.686 180.927 115.722 179.258 114.38C177.588 113.037 173.521 111.705 170.718 112.304C168.528 112.791 172.946 116.257 172.946 116.257C173.033 116.059 173.166 115.884 173.334 115.745C173.502 115.605 173.701 115.506 173.915 115.455C175.273 115.203 177.588 116.033 178.842 116.739C180.462 117.627 183.424 120.686 183.424 120.686Z" fill="black"/>
<path d="M198.346 152.936H173.849V179.445H198.346V152.936Z" fill="#FF0000"/>
<path opacity="0.1" d="M198.346 152.936H173.849V179.445H198.346V152.936Z" fill="black"/>
<path d="M161.192 179.445H173.843V152.936H161.192V179.445Z" fill="#FF0000"/>
<path opacity="0.32" d="M161.192 179.445H173.843V152.936H161.192V179.445Z" fill="black"/>
<path d="M184.02 158.664H184.534H184.923L185.147 158.22L185.459 158.664L185.881 157.755L186.28 158.664H187.43H187.956L188.142 158.06L188.322 158.664H188.662V152.936H184.02V158.664Z" fill="white"/>
<path d="M162.067 177.616C163.005 175.733 163.934 173.843 164.854 171.946L167.591 166.244L170.328 160.515C171.226 158.603 172.114 156.685 172.994 154.759C172.056 156.649 171.129 158.541 170.213 160.435L167.476 166.137L164.739 171.865C163.837 173.777 162.947 175.694 162.067 177.616Z" fill="#FF0000"/>
<path d="M162.067 154.759C162.951 156.685 163.839 158.603 164.733 160.515L167.47 166.244L170.208 171.946C171.127 173.846 172.054 175.736 172.988 177.616C172.113 175.697 171.224 173.779 170.323 171.86L167.585 166.137L164.848 160.435C163.943 158.537 163.016 156.646 162.067 154.759Z" fill="#FF0000"/>
<path d="M189.314 135.492C195.292 139.884 206.886 149.726 207.926 155.048C209.257 162.034 203.169 175.776 200.569 178.429C198.817 180.221 191.099 173.615 190.633 172.01C190.168 170.405 196.441 159.242 196.491 157.964C196.54 156.685 188.52 144.987 185.039 139.777C180.626 133.224 184.256 131.769 189.314 135.492Z" fill="#AD6359"/>
<path d="M187.534 172.93C188.081 172.309 187.753 172.026 186.291 172.304C184.83 172.582 179.306 174.888 178.627 172.935C177.949 170.983 185.81 167.838 188.273 167.559C190.462 167.418 192.659 167.454 194.842 167.666C193.446 168.581 190.26 171.106 187.534 172.93Z" fill="#AD6359"/>
<path d="M201.264 177.541C198.79 181.574 191.613 184.115 186.259 184.211C185.672 184.233 185.094 184.064 184.617 183.73C182.219 183.815 181.458 182.735 181.458 182.735C179.197 182.141 178.579 180.932 178.579 180.932C178.579 180.932 175.76 181.002 175.431 179.327C175.064 177.466 179.093 177.723 181.398 176.556C186.686 173.855 193.441 168.576 194.87 167.645L201.264 177.541Z" fill="#AD6359"/>
<path d="M188.951 177.551C185.769 179.343 182.244 180.476 178.594 180.879C178.584 180.882 178.576 180.888 178.57 180.896C178.564 180.904 178.561 180.914 178.561 180.924C178.561 180.934 178.564 180.944 178.57 180.952C178.576 180.96 178.584 180.966 178.594 180.969C182.31 180.808 185.909 179.649 188.995 177.621C189.055 177.573 189.028 177.514 188.951 177.551Z" fill="#263238"/>
<path d="M191.082 180.429C189.511 181.093 186.741 182.237 181.431 182.676V182.708C184.806 182.866 188.159 182.103 191.115 180.504C191.208 180.456 191.186 180.387 191.082 180.429Z" fill="#263238"/>
<path d="M192.198 182.002C189.759 182.907 187.204 183.483 184.605 183.714V183.746C188.098 183.665 189.352 183.254 192.269 182.087C192.346 182.045 192.302 181.959 192.198 182.002Z" fill="#263238"/>
<path d="M189.653 148.48L200.996 143.382C200.996 143.382 190.124 135.188 186.215 133.658C181.836 131.935 181.891 134.503 183.615 138.552C185.34 142.601 189.653 148.48 189.653 148.48Z" fill="#FF0000"/>
<path d="M198.471 142.152C198.049 142.269 194.491 143.804 193.725 144.152C192.958 144.5 189.811 145.901 189.05 146.329C189.017 146.329 189.05 146.399 189.05 146.383C189.876 146.11 193.057 144.703 193.845 144.361C194.633 144.018 198.121 142.43 198.476 142.221C198.526 142.152 198.526 142.12 198.471 142.152Z" fill="#263238"/>
<path d="M190.546 148.068C190.195 148.196 189.653 148.421 189.653 148.421C188.816 146.923 187.814 145.5 186.916 144.045C186.018 142.59 185.033 141.103 184.097 139.632H184.059C184.54 140.499 185.017 141.36 185.504 142.221L185.263 141.932C184.978 141.585 184.683 141.248 184.414 140.895C184.414 140.868 184.343 140.895 184.365 140.927C184.602 141.307 184.861 141.673 185.142 142.023C185.351 142.264 185.569 142.494 185.794 142.719C186.073 143.205 186.341 143.698 186.648 144.184C187.551 145.671 188.443 147.394 189.462 148.801C189.462 148.801 190.234 148.373 190.6 148.116C190.639 148.111 190.6 148.036 190.546 148.068Z" fill="#263238"/>
<path d="M158.931 164.65L140.275 166.153L134.013 141.221L152.669 139.718L158.931 164.65Z" fill="#37474F"/>
<path d="M148.207 141.579L139.366 142.286L138.676 139.531L147.523 138.83L148.207 141.579Z" fill="#A6A6A6"/>
<path d="M145.514 138.99L144.425 139.076L144.107 137.808L141.457 138.017L141.775 139.29L140.691 139.376L140.111 137.065L144.95 136.68L145.514 138.99Z" fill="#A6A6A6"/>
<path d="M131.281 152.556C131.309 152.983 131.477 153.39 131.762 153.715C132.046 154.041 132.43 154.269 132.857 154.363C132.857 154.363 131.335 155.578 131.762 157.118C131.981 157.91 133.47 158.263 133.47 158.263C133.141 158.556 132.9 158.932 132.776 159.351C132.651 159.769 132.647 160.212 132.764 160.633C133.136 161.702 134.576 161.895 134.576 161.895C134.576 161.895 133.914 163.393 134.653 164.366C136.153 166.34 145.859 164.195 146.548 160.37C146.871 158.584 144.528 159.236 144.528 159.236C144.528 159.236 147.665 157.509 147.265 155.54C146.866 153.572 143.871 154.599 143.871 154.599C143.871 154.599 146.899 152.898 146.269 150.897C145.64 148.897 142.804 150.362 142.804 150.362C142.804 150.362 144.632 148.458 143.795 147.035C142.41 144.687 138.244 148.934 135.999 148.913L135.118 145.661C135.118 145.661 131.095 150.833 131.281 152.556Z" fill="#AD6359"/>
<path d="M133.433 158.29C133.394 158.29 133.433 158.36 133.433 158.36C137.296 158.399 141.045 157.086 144.003 154.658C144.102 154.572 144.102 154.391 144.003 154.487C141.907 156.059 136.624 157.862 133.433 158.29Z" fill="#263238"/>
<path d="M142.969 150.09C140.051 152.438 136.662 153.631 133 154.369C132.951 154.369 132.973 154.439 133 154.444C134.894 154.556 137.177 153.85 138.907 153.149C140.525 152.531 141.95 151.509 143.04 150.186C143.095 150.138 143.029 150.042 142.969 150.09Z" fill="#263238"/>
<path d="M175.293 134.075C175.397 134.611 175.549 135.137 175.748 135.647C175.938 136.155 176.172 136.645 176.449 137.113C176.707 137.572 177.046 137.983 177.45 138.327C177.639 138.478 177.863 138.583 178.102 138.632C178.342 138.637 178.581 138.586 178.797 138.482C179.777 138.017 180.637 137.341 181.31 136.503C181.49 136.3 181.66 136.086 181.857 135.877C182.054 135.669 182.186 135.433 182.344 135.209C182.503 134.984 182.656 134.759 182.81 134.529C182.963 134.299 183.1 134.064 183.253 133.834C182.835 134.862 182.283 135.833 181.611 136.722C180.947 137.656 180.045 138.402 178.994 138.889C178.701 139.019 178.379 139.074 178.058 139.049C177.744 138.991 177.453 138.851 177.215 138.643C176.776 138.26 176.423 137.792 176.18 137.268C175.655 136.277 175.353 135.189 175.293 134.075Z" fill="#263238"/>
<path d="M101.1 449.784C100.22 449.784 99.7795 449.021 99.7795 447.496C99.7795 446.499 100.044 445.883 100.572 445.648C101.158 445.237 101.95 444.768 102.948 444.24C104.004 443.712 105.265 443.125 106.732 442.48C107.729 442.187 109.137 441.747 110.956 441.16C113.772 439.987 116.236 438.491 118.348 436.672C119.228 436.027 120.43 434.824 121.956 433.064C122.425 432.301 122.66 431.421 122.66 430.424C122.66 429.075 122.366 428.019 121.78 427.256C121.252 426.435 120.577 425.76 119.756 425.232L117.292 423.648C116.881 423.296 116.353 422.856 115.708 422.328C115.062 421.8 114.329 421.213 113.508 420.568C112.804 420.275 111.836 419.6 110.604 418.544C109.489 417.781 108.374 416.227 107.26 413.88C106.438 412.179 105.822 410.712 105.412 409.48C105.001 408.248 104.796 407.016 104.796 405.784C104.796 403.027 105.588 400.739 107.172 398.92C108.228 397.629 109.372 396.28 110.604 394.872C111.894 393.464 113.273 391.968 114.74 390.384C116.969 388.507 119.345 387.275 121.868 386.688C123.452 386.277 125.036 386.072 126.62 386.072C127.265 386.072 127.588 386.659 127.588 387.832C127.588 389.592 127.118 390.472 126.18 390.472C124.948 390.472 123.628 390.648 122.22 391C119.11 391.821 116.148 393.845 113.332 397.072C112.921 397.541 112.334 398.216 111.572 399.096C110.868 399.917 110.017 400.915 109.02 402.088C108.198 403.613 107.788 404.611 107.788 405.08C107.788 405.608 107.934 406.4 108.228 407.456C108.521 408.512 108.932 409.597 109.46 410.712C110.34 412.531 111.278 413.939 112.276 414.936L114.916 416.52C115.502 416.989 116.089 417.488 116.676 418.016C117.321 418.544 117.996 419.101 118.7 419.688C119.58 420.275 120.46 420.891 121.34 421.536C122.22 422.123 123.07 422.944 123.892 424C124.889 425.349 125.388 427.168 125.388 429.456C125.388 431.685 124.86 433.739 123.804 435.616C123.041 436.907 121.633 438.461 119.58 440.28C118.289 441.453 116.969 442.48 115.62 443.36C114.329 444.181 113.009 444.885 111.66 445.472L107.26 446.792L101.54 449.696L101.1 449.784ZM128.595 446.704C127.128 446.704 126.307 446.029 126.131 444.68C126.013 443.859 125.925 442.979 125.867 442.04C125.808 441.043 125.779 439.987 125.779 438.872C125.779 434.707 126.072 430.16 126.659 425.232C127.304 420.245 128.213 414.877 129.387 409.128C130.149 405.667 130.736 402.88 131.147 400.768C131.616 398.656 131.939 397.277 132.115 396.632C133.288 392.291 134.696 389.328 136.339 387.744C137.043 387.04 137.864 386.688 138.803 386.688C140.211 386.688 141.472 387.451 142.587 388.976C143.701 390.501 144.259 392.467 144.259 394.872C144.259 396.456 143.995 398.099 143.467 399.8C143.056 401.032 142.323 402.557 141.267 404.376C140.269 406.136 138.92 408.219 137.219 410.624C133.757 415.435 131.851 418.485 131.499 419.776L130.267 424.968C130.032 426.024 129.856 427.051 129.739 428.048C129.68 429.045 129.651 430.013 129.651 430.952C129.651 431.363 129.651 431.773 129.651 432.184C129.651 432.536 129.68 432.917 129.739 433.328C129.915 434.912 130.384 435.704 131.147 435.704C131.616 435.704 132.085 435.499 132.555 435.088L137.131 431.304C139.536 429.368 141.091 428.4 141.795 428.4C143.027 428.4 143.643 429.603 143.643 432.008C143.643 437.64 144.64 440.573 146.635 440.808C146.869 440.867 147.104 440.896 147.339 440.896C147.573 440.896 147.808 440.896 148.043 440.896C151.093 440.896 153.352 439.928 154.819 437.992C155.171 437.581 155.493 437.376 155.787 437.376C156.139 437.376 156.315 437.669 156.315 438.256C156.315 438.667 156.139 439.107 155.787 439.576C155.083 440.397 153.704 441.453 151.651 442.744C149.304 444.152 147.397 444.856 145.931 444.856C145.403 444.856 144.963 444.768 144.611 444.592H144.435C143.261 443.888 142.323 442.011 141.619 438.96C141.032 436.261 140.181 435 139.067 435.176C136.779 436.115 135.019 437.523 133.787 439.4C133.2 440.221 132.32 442.04 131.147 444.856C130.619 446.088 129.768 446.704 128.595 446.704ZM134.051 399.536L132.819 412.208C134.109 411.211 135.224 410.125 136.163 408.952C137.16 407.72 138.04 406.459 138.803 405.168C139.213 404.405 139.653 403.437 140.123 402.264C140.651 401.091 141.208 399.683 141.795 398.04C142.147 397.16 142.323 396.221 142.323 395.224C142.323 393.581 141.883 392.173 141.003 391C140.123 389.827 139.213 389.387 138.275 389.68C136.456 390.267 135.048 393.552 134.051 399.536ZM157.212 416.872C156.332 416.872 155.921 416.344 155.98 415.288L156.86 411.944C157.036 411.299 157.447 410.976 158.092 410.976C159.441 410.976 159.999 411.533 159.764 412.648C159.705 413.469 159.5 414.379 159.148 415.376C158.796 416.373 158.151 416.872 157.212 416.872ZM154.132 444.592C153.604 444.592 153.252 444.357 153.076 443.888C152.841 443.243 152.695 442.451 152.636 441.512C152.577 440.573 152.577 439.517 152.636 438.344C152.753 436.995 153.076 435.293 153.604 433.24C154.191 431.187 154.983 428.811 155.98 426.112C156.215 425.525 156.625 425.232 157.212 425.232C158.327 425.232 158.708 425.731 158.356 426.728C158.121 427.491 157.916 428.253 157.74 429.016C157.564 429.779 157.388 430.541 157.212 431.304C156.919 432.653 156.684 433.856 156.508 434.912C156.332 435.968 156.244 436.907 156.244 437.728C156.244 440.603 156.273 442.099 156.332 442.216C156.508 442.803 156.332 443.36 155.804 443.888C155.276 444.357 154.719 444.592 154.132 444.592ZM157.994 480.408C156.996 480.408 156.498 480.085 156.498 479.44C156.498 479.147 156.468 478.677 156.41 478.032C156.351 477.387 156.263 476.595 156.146 475.656C156.087 474.835 156.028 474.072 155.97 473.368C155.911 472.723 155.911 472.195 155.97 471.784C156.204 467.795 156.85 463.013 157.906 457.44C158.962 451.925 160.487 445.619 162.482 438.52C162.071 438.461 161.866 438.197 161.866 437.728C161.572 437.435 161.426 436.995 161.426 436.408C161.426 435.587 161.66 434.824 162.13 434.12C162.658 433.357 163.186 432.624 163.714 431.92L164.682 430.248L165.65 427.08C166.06 425.907 166.354 424.821 166.53 423.824C166.706 422.768 166.823 421.829 166.882 421.008C166.94 420.245 167.351 419.864 168.114 419.864C168.994 419.864 169.434 420.216 169.434 420.92C169.434 421.8 169.346 422.68 169.17 423.56C168.994 424.44 168.759 425.349 168.466 426.288C172.338 423.12 176.18 421.536 179.994 421.536C181.754 421.536 183.103 422.269 184.042 423.736C184.863 424.909 185.274 426.2 185.274 427.608C185.274 431.539 183.338 436.291 179.466 441.864C175.359 447.848 171.399 450.84 167.586 450.84C165.884 450.84 165.034 449.843 165.034 447.848C165.034 446.733 165.415 446.176 166.178 446.176C166.53 446.176 167.028 446.411 167.674 446.88C167.967 446.939 168.26 446.968 168.554 446.968C168.847 447.027 169.14 447.115 169.434 447.232C172.25 447.232 175.212 444.797 178.322 439.928C181.255 435.235 182.722 431.128 182.722 427.608C182.722 426.787 182.37 425.995 181.666 425.232C181.02 424.411 180.316 424 179.554 424C174.508 423.941 170.431 426.024 167.322 430.248L166.178 433.856C162.482 446.235 160.634 458.173 160.634 469.672L160.546 474.424L160.458 478.912C160.458 479.909 159.636 480.408 157.994 480.408ZM205.426 447.848C204.605 447.848 204.224 447.496 204.282 446.792C204.048 446.44 203.696 445.648 203.226 444.416V444.504C203.226 444.856 203.197 444.827 203.138 444.416C203.08 443.947 203.021 443.36 202.962 442.656C202.904 441.952 202.874 441.395 202.874 440.984L203.578 433.944C203.872 431.48 204.312 428.987 204.898 426.464L206.658 419.512C207.48 416.403 208.712 411.387 210.354 404.464C210.472 403.291 210.677 401.736 210.97 399.8C211.322 397.864 211.704 395.547 212.114 392.848C212.349 391.381 212.994 390.648 214.05 390.648C214.93 390.648 215.37 391.381 215.37 392.848V392.936C215.37 394.227 215.136 395.928 214.666 398.04C214.256 400.093 213.816 402.587 213.346 405.52C213.112 406.635 212.818 407.837 212.466 409.128C212.173 410.36 211.792 411.709 211.322 413.176C210.853 414.701 210.442 416.08 210.09 417.312C209.738 418.544 209.474 419.571 209.298 420.392C208.946 421.8 208.536 423.648 208.066 425.936C207.656 428.224 207.157 430.952 206.57 434.12C206.394 435.645 206.248 436.995 206.13 438.168C206.013 439.283 205.954 440.221 205.954 440.984C205.954 441.336 205.954 441.659 205.954 441.952C206.013 442.187 206.072 442.392 206.13 442.568C206.13 442.451 206.424 442.949 207.01 444.064C207.773 443.712 209.328 443.36 211.674 443.008L214.666 443.096C215.429 443.155 216.045 443.213 216.514 443.272C217.042 443.331 217.424 443.36 217.658 443.36H217.922C218.626 443.36 219.506 443.184 220.562 442.832C221.149 442.597 221.648 442.451 222.058 442.392C222.528 442.275 222.88 442.187 223.114 442.128C227.104 441.6 229.802 440.837 231.21 439.84C231.68 439.429 232.12 439.224 232.53 439.224C233.117 439.224 233.41 439.723 233.41 440.72C233.41 442.48 232.97 443.712 232.09 444.416C231.797 444.651 231.386 444.885 230.858 445.12C230.389 445.296 229.802 445.443 229.098 445.56L223.378 446.792C222.088 447.027 220.944 447.232 219.946 447.408C218.949 447.643 218.069 447.76 217.306 447.76C216.896 447.76 216.456 447.731 215.986 447.672C215.517 447.672 214.989 447.643 214.402 447.584C213.112 447.408 212.144 447.32 211.498 447.32C210.208 447.203 208.184 447.379 205.426 447.848ZM239.805 416.872C238.925 416.872 238.514 416.344 238.573 415.288L239.453 411.944C239.629 411.299 240.039 410.976 240.685 410.976C242.034 410.976 242.591 411.533 242.357 412.648C242.298 413.469 242.093 414.379 241.741 415.376C241.389 416.373 240.743 416.872 239.805 416.872ZM236.725 444.592C236.197 444.592 235.845 444.357 235.669 443.888C235.434 443.243 235.287 442.451 235.229 441.512C235.17 440.573 235.17 439.517 235.229 438.344C235.346 436.995 235.669 435.293 236.197 433.24C236.783 431.187 237.575 428.811 238.573 426.112C238.807 425.525 239.218 425.232 239.805 425.232C240.919 425.232 241.301 425.731 240.949 426.728C240.714 427.491 240.509 428.253 240.333 429.016C240.157 429.779 239.981 430.541 239.805 431.304C239.511 432.653 239.277 433.856 239.101 434.912C238.925 435.968 238.837 436.907 238.837 437.728C238.837 440.603 238.866 442.099 238.925 442.216C239.101 442.803 238.925 443.36 238.397 443.888C237.869 444.357 237.311 444.592 236.725 444.592ZM245.954 445.384C245.074 445.384 244.752 444.592 244.986 443.008C245.162 440.955 245.456 438.432 245.866 435.44C246.336 432.389 246.893 428.869 247.538 424.88C247.832 424 248.301 423.56 248.946 423.56C249.768 423.56 250.178 423.941 250.178 424.704C250.178 424.763 250.178 424.88 250.178 425.056C250.178 425.173 250.149 425.32 250.09 425.496C249.973 426.024 249.856 426.611 249.738 427.256C249.68 427.843 249.65 428.488 249.65 429.192C249.65 430.013 249.68 430.893 249.738 431.832C249.856 432.771 250.032 433.768 250.266 434.824C250.618 434.824 252.056 433.563 254.578 431.04C257.101 428.635 259.154 427.197 260.738 426.728V426.64C260.914 426.581 261.09 426.552 261.266 426.552C261.442 426.552 261.589 426.552 261.706 426.552C262.821 426.552 263.554 427.08 263.906 428.136L265.138 436.32C265.666 439.899 266.634 441.688 268.042 441.688C268.629 441.688 269.216 441.483 269.802 441.072C270.624 440.485 271.416 439.869 272.178 439.224C272.941 438.52 273.616 437.787 274.202 437.024C274.554 436.907 274.789 436.848 274.906 436.848C275.317 436.848 275.522 437.112 275.522 437.64C275.522 437.992 275.288 438.461 274.818 439.048C274.056 439.987 273.264 440.955 272.442 441.952C271.621 442.891 270.8 443.624 269.978 444.152C268.864 444.797 267.925 445.12 267.162 445.12C265.578 445.12 264.376 443.829 263.554 441.248L262.058 434.12C261.53 431.715 260.856 430.629 260.034 430.864C259.976 430.864 259.888 430.864 259.77 430.864C259.712 430.805 259.624 430.776 259.506 430.776C259.272 430.776 258.978 430.835 258.626 430.952C258.333 431.069 258.04 431.275 257.746 431.568L255.634 433.768C253.816 435.645 252.29 437.464 251.058 439.224C249.826 440.984 248.829 442.627 248.066 444.152C247.597 444.973 246.893 445.384 245.954 445.384ZM274.182 452.072C273.654 452.072 273.097 451.837 272.51 451.368C271.982 450.957 271.748 450.488 271.806 449.96C272.452 441.277 274.74 430.659 278.67 418.104C280.548 412.355 283.188 405.667 286.59 398.04C286.766 397.629 287.06 397.424 287.47 397.424C288.233 397.424 288.614 397.835 288.614 398.656C288.614 398.773 288.585 398.891 288.526 399.008C288.526 399.125 288.497 399.243 288.438 399.36C286.796 402.411 284.654 408.717 282.014 418.28C281.31 420.861 280.694 423.179 280.166 425.232C279.638 427.285 279.198 429.075 278.846 430.6C283.54 425.555 288.028 422.504 292.31 421.448L293.102 421.36C293.806 421.243 294.334 421.565 294.686 422.328C295.097 423.032 295.214 423.736 295.038 424.44C294.393 426.493 292.75 428.723 290.11 431.128C288.174 432.829 286.678 434.149 285.622 435.088C284.566 436.027 283.98 436.584 283.862 436.76C283.98 438.227 285.828 440.573 289.406 443.8C289.641 444.035 289.934 444.24 290.286 444.416C290.638 444.533 291.02 444.651 291.43 444.768C291.841 444.885 292.193 445.032 292.486 445.208C292.838 445.325 293.132 445.472 293.366 445.648C293.66 445.941 293.806 446.235 293.806 446.528C293.806 447.056 293.572 447.555 293.102 448.024C292.692 448.493 292.222 448.728 291.694 448.728C291.518 448.728 291.313 448.669 291.078 448.552C289.084 447.144 287.148 445.501 285.27 443.624C283.393 441.688 281.604 439.547 279.902 437.2C279.257 437.317 278.406 437.611 277.35 438.08C276.998 440.427 276.676 442.627 276.382 444.68C276.148 446.733 275.913 448.669 275.678 450.488C275.62 451.544 275.121 452.072 274.182 452.072ZM280.078 433.328C280.254 433.328 280.372 433.299 280.43 433.24C282.601 433.24 285.094 432.096 287.91 429.808C290.14 427.931 291.254 426.523 291.254 425.584C291.196 425.232 290.932 425.056 290.462 425.056C289.054 425.056 285.652 427.784 280.254 433.24L280.078 433.328Z" fill="black"/>
</svg>
