<svg width="32" height="25" viewBox="0 0 32 25" fill="none" xmlns="http://www.w3.org/2000/svg">
<path d="M5.64779 24.1508V22.5443C5.64779 21.9285 5.27482 21.5269 4.63544 21.5269C4.31576 21.5269 3.96943 21.634 3.72966 21.982C3.54318 21.6875 3.27677 21.5269 2.87717 21.5269C2.61076 21.5269 2.34435 21.6072 2.13123 21.9017V21.5804H1.57178V24.1508H2.13123V22.7317C2.13123 22.2766 2.37099 22.0624 2.74396 22.0624C3.11693 22.0624 3.30341 22.3033 3.30341 22.7317V24.1508H3.86287V22.7317C3.86287 22.2766 4.12927 22.0624 4.4756 22.0624C4.84857 22.0624 5.03505 22.3033 5.03505 22.7317V24.1508H5.64779ZM13.933 21.5804H13.0272V20.804H12.4678V21.5804H11.9616V22.0891H12.4678V23.2672C12.4678 23.8562 12.7075 24.2043 13.3469 24.2043C13.5867 24.2043 13.8531 24.124 14.0396 24.0169L13.8797 23.535C13.7199 23.642 13.5334 23.6688 13.4002 23.6688C13.1338 23.6688 13.0272 23.5082 13.0272 23.2404V22.0891H13.933V21.5804ZM18.675 21.5269C18.3553 21.5269 18.1422 21.6875 18.009 21.9017V21.5804H17.4496V24.1508H18.009V22.7049C18.009 22.2766 18.1955 22.0356 18.5418 22.0356C18.6484 22.0356 18.7816 22.0624 18.8882 22.0891L19.048 21.5536C18.9414 21.5269 18.7816 21.5269 18.675 21.5269ZM11.5087 21.7946C11.2423 21.6072 10.8693 21.5269 10.4697 21.5269C9.83036 21.5269 9.40411 21.8482 9.40411 22.3569C9.40411 22.7853 9.72379 23.0262 10.2832 23.1066L10.5497 23.1333C10.8427 23.1869 11.0025 23.2672 11.0025 23.4011C11.0025 23.5885 10.7894 23.7224 10.4164 23.7224C10.0435 23.7224 9.75043 23.5885 9.56395 23.4546L9.29754 23.883C9.59059 24.0972 9.9902 24.2043 10.3898 24.2043C11.1357 24.2043 11.562 23.8562 11.562 23.3743C11.562 22.9191 11.2157 22.6782 10.6829 22.5978L10.4164 22.5711C10.1767 22.5443 9.9902 22.4907 9.9902 22.3301C9.9902 22.1427 10.1767 22.0356 10.4697 22.0356C10.7894 22.0356 11.1091 22.1695 11.2689 22.2498L11.5087 21.7946ZM26.3742 21.5269C26.0545 21.5269 25.8413 21.6875 25.7081 21.9017V21.5804H25.1487V24.1508H25.7081V22.7049C25.7081 22.2766 25.8946 22.0356 26.241 22.0356C26.3475 22.0356 26.4807 22.0624 26.5873 22.0891L26.7471 21.5536C26.6406 21.5269 26.4807 21.5269 26.3742 21.5269ZM19.2345 22.8656C19.2345 23.642 19.7673 24.2043 20.5931 24.2043C20.9661 24.2043 21.2325 24.124 21.4989 23.9098L21.2325 23.4546C21.0194 23.6153 20.8063 23.6956 20.5665 23.6956C20.1136 23.6956 19.7939 23.3743 19.7939 22.8656C19.7939 22.3836 20.1136 22.0624 20.5665 22.0356C20.8063 22.0356 21.0194 22.1159 21.2325 22.2766L21.4989 21.8214C21.2325 21.6072 20.9661 21.5269 20.5931 21.5269C19.7673 21.5269 19.2345 22.0891 19.2345 22.8656ZM24.4028 22.8656V21.5804H23.8433V21.9017C23.6568 21.6607 23.3904 21.5269 23.0441 21.5269C22.3248 21.5269 21.7653 22.0891 21.7653 22.8656C21.7653 23.642 22.3248 24.2043 23.0441 24.2043C23.417 24.2043 23.6835 24.0704 23.8433 23.8295V24.1508H24.4028V22.8656ZM22.3514 22.8656C22.3514 22.4104 22.6445 22.0356 23.124 22.0356C23.5769 22.0356 23.8966 22.3836 23.8966 22.8656C23.8966 23.3208 23.5769 23.6956 23.124 23.6956C22.6445 23.6688 22.3514 23.3208 22.3514 22.8656ZM15.6646 21.5269C14.9187 21.5269 14.3859 22.0624 14.3859 22.8656C14.3859 23.6688 14.9187 24.2043 15.6913 24.2043C16.0642 24.2043 16.4372 24.0972 16.7303 23.8562L16.4639 23.4546C16.2507 23.6153 15.9843 23.7224 15.7179 23.7224C15.3716 23.7224 15.0253 23.5617 14.9453 23.1066H16.8368V22.8924C16.8635 22.0624 16.3839 21.5269 15.6646 21.5269ZM15.6646 22.0088C16.011 22.0088 16.2507 22.223 16.304 22.6246H14.972C15.0253 22.2766 15.265 22.0088 15.6646 22.0088ZM29.5444 22.8656V20.563H28.9849V21.9017C28.7984 21.6607 28.532 21.5269 28.1857 21.5269C27.4664 21.5269 26.907 22.0891 26.907 22.8656C26.907 23.642 27.4664 24.2043 28.1857 24.2043C28.5587 24.2043 28.8251 24.0704 28.9849 23.8295V24.1508H29.5444V22.8656ZM27.4931 22.8656C27.4931 22.4104 27.7861 22.0356 28.2656 22.0356C28.7185 22.0356 29.0382 22.3836 29.0382 22.8656C29.0382 23.3208 28.7185 23.6956 28.2656 23.6956C27.7861 23.6688 27.4931 23.3208 27.4931 22.8656ZM8.79137 22.8656V21.5804H8.23192V21.9017C8.04544 21.6607 7.77903 21.5269 7.4327 21.5269C6.71341 21.5269 6.15396 22.0891 6.15396 22.8656C6.15396 23.642 6.71341 24.2043 7.4327 24.2043C7.80567 24.2043 8.07208 24.0704 8.23192 23.8295V24.1508H8.79137V22.8656ZM6.71341 22.8656C6.71341 22.4104 7.00645 22.0356 7.48599 22.0356C7.93888 22.0356 8.25856 22.3836 8.25856 22.8656C8.25856 23.3208 7.93888 23.6956 7.48599 23.6956C7.00645 23.6688 6.71341 23.3208 6.71341 22.8656Z" fill="white"/>
<path d="M19.7141 2.06152H11.3223V17.2159H19.7141V2.06152Z" fill="#FF5F00"/>
<path d="M11.8551 9.6388C11.8551 6.55974 13.2936 3.82875 15.5048 2.06163C13.8797 0.776459 11.8284 0 9.59061 0C4.28913 0 0 4.31069 0 9.6388C0 14.9669 4.28913 19.2776 9.59061 19.2776C11.8284 19.2776 13.8797 18.5011 15.5048 17.216C13.2936 15.4756 11.8551 12.7179 11.8551 9.6388Z" fill="#EB001B"/>
<path d="M31.0361 9.6388C31.0361 14.9669 26.7469 19.2776 21.4455 19.2776C19.2077 19.2776 17.1563 18.5011 15.5312 17.216C17.7691 15.4489 19.181 12.7179 19.181 9.6388C19.181 6.55974 17.7424 3.82875 15.5312 2.06163C17.1563 0.776459 19.2077 0 21.4455 0C26.7469 0 31.0361 4.33746 31.0361 9.6388Z" fill="#F79E1B"/>
</svg>
