<svg width="21" height="20" viewBox="0 0 21 20" fill="none" xmlns="http://www.w3.org/2000/svg">
<path d="M20.0413 17.0123C19.4172 16.4559 18.8708 15.8181 18.4168 15.1159C17.9211 14.1468 17.6241 13.0883 17.543 12.0028V8.80552C17.5404 8.41716 17.5057 8.02967 17.4395 7.647C16.93 7.54516 16.4404 7.36157 15.9897 7.10333C16.1615 7.6566 16.2488 8.23265 16.2486 8.812V12.0093C16.3279 13.3335 16.6922 14.625 17.3165 15.7955C17.7633 16.5036 18.2935 17.1555 18.8957 17.7372H2.32034C2.92252 17.1555 3.45272 16.5036 3.89957 15.7955C4.52388 14.625 4.88815 13.3335 4.96748 12.0093V8.80552C4.96408 8.05648 5.10845 7.31413 5.39235 6.62097C5.67624 5.9278 6.09407 5.29745 6.62192 4.76599C7.14977 4.23453 7.77727 3.81242 8.46848 3.52381C9.1597 3.2352 9.90105 3.08577 10.6501 3.08408C11.7463 3.08496 12.818 3.40915 13.7309 4.01608C13.6302 3.64651 13.5737 3.26631 13.5626 2.88344V2.47569C12.8868 2.14325 12.1608 1.92457 11.4138 1.82847V1.01297C11.4138 0.783809 11.3228 0.564037 11.1607 0.401998C10.9987 0.239959 10.7789 0.148926 10.5498 0.148926C10.3206 0.148926 10.1008 0.239959 9.9388 0.401998C9.77676 0.564037 9.68573 0.783809 9.68573 1.01297V1.86083C8.01313 2.09678 6.48235 2.92987 5.37602 4.20632C4.26969 5.48276 3.66251 7.11636 3.66657 8.80552V12.0028C3.5855 13.0883 3.28844 14.1468 2.79282 15.1159C2.3468 15.8165 1.80916 16.4542 1.19418 17.0123C1.12514 17.073 1.06981 17.1476 1.03186 17.2313C0.993922 17.315 0.974237 17.4058 0.974121 17.4977V18.3779C0.974121 18.5496 1.04231 18.7142 1.16369 18.8356C1.28507 18.957 1.44969 19.0252 1.62134 19.0252H19.6141C19.7858 19.0252 19.9504 18.957 20.0718 18.8356C20.1932 18.7142 20.2613 18.5496 20.2613 18.3779V17.4977C20.2612 17.4058 20.2415 17.315 20.2036 17.2313C20.1657 17.1476 20.1103 17.073 20.0413 17.0123Z" fill="#70B5FF"/>
</svg>
