<svg width="25" height="25" viewBox="0 0 25 25" fill="none" xmlns="http://www.w3.org/2000/svg">
<path d="M12.1719 11.8566C12.1419 11.8566 12.1219 11.8566 12.0919 11.8566C12.0418 11.8465 11.9717 11.8465 11.9117 11.8566C9.00874 11.7665 6.81653 9.48416 6.81653 6.67132C6.81653 3.80843 9.14888 1.47607 12.0118 1.47607C14.8747 1.47607 17.207 3.80843 17.207 6.67132C17.197 9.48416 14.9948 11.7665 12.202 11.8566C12.192 11.8566 12.1819 11.8566 12.1719 11.8566ZM12.0118 2.97759C9.97972 2.97759 8.31805 4.63927 8.31805 6.67132C8.31805 8.67334 9.87962 10.285 11.8716 10.355C11.9217 10.345 12.0618 10.345 12.192 10.355C14.1539 10.2649 15.6955 8.65332 15.7055 6.67132C15.7055 4.63927 14.0438 2.97759 12.0118 2.97759Z" fill="white"/>
<path d="M12.1819 22.7975C10.2199 22.7975 8.24793 22.297 6.75642 21.296C5.36502 20.3751 4.60425 19.1138 4.60425 17.7424C4.60425 16.371 5.36502 15.0998 6.75642 14.1688C9.75945 12.1768 14.6244 12.1768 17.6074 14.1688C18.9888 15.0897 19.7596 16.351 19.7596 17.7224C19.7596 19.0938 18.9988 20.3651 17.6074 21.296C16.1059 22.297 14.1439 22.7975 12.1819 22.7975ZM7.58726 15.4301C6.62629 16.0707 6.10576 16.8916 6.10576 17.7524C6.10576 18.6033 6.6363 19.4241 7.58726 20.0548C10.0798 21.7264 14.284 21.7264 16.7765 20.0548C17.7375 19.4141 18.258 18.5933 18.258 17.7324C18.258 16.8816 17.7275 16.0607 16.7765 15.4301C14.284 13.7684 10.0798 13.7684 7.58726 15.4301Z" fill="white"/>
</svg>
