<svg width="25" height="25" viewBox="0 0 25 25" fill="none" xmlns="http://www.w3.org/2000/svg">
<circle cx="12.5" cy="12.5" r="12.5" fill="url(#paint0_linear_204_48456)"/>
<path d="M17.6987 7.48877L12.7212 5.79248C12.6611 5.77197 12.5806 5.76172 12.5 5.76172C12.4194 5.76172 12.3389 5.77197 12.2788 5.79248L7.30127 7.48877C7.17969 7.52979 7.08008 7.67041 7.08008 7.79932V14.8657C7.08008 14.9946 7.16357 15.1646 7.26465 15.2451L12.314 19.1797C12.3652 19.2192 12.4312 19.2397 12.4985 19.2397C12.5659 19.2397 12.6333 19.2192 12.6831 19.1797L17.7324 15.2451C17.8335 15.166 17.917 14.9961 17.917 14.8657V7.79932C17.9199 7.67041 17.8203 7.53125 17.6987 7.48877ZM15.1733 9.99072L12.0591 14.2783C12.0372 14.3083 12.0085 14.3327 11.9754 14.3495C11.9424 14.3663 11.9058 14.375 11.8687 14.375C11.8315 14.375 11.795 14.3663 11.7619 14.3495C11.7288 14.3327 11.7001 14.3083 11.6782 14.2783L9.82666 11.7295C9.771 11.6519 9.82666 11.5435 9.92187 11.5435H10.7305C10.8052 11.5435 10.877 11.5801 10.9209 11.6401L11.8687 12.9438L14.0791 9.8999C14.123 9.83984 14.1934 9.80322 14.2695 9.80322H15.0781C15.1733 9.80469 15.229 9.91309 15.1733 9.99072Z" fill="#F6F6F6"/>
<defs>
<linearGradient id="paint0_linear_204_48456" x1="12.5" y1="0" x2="32.7223" y2="12.7969" gradientUnits="userSpaceOnUse">
<stop stop-color="#30BDDC"/>
<stop offset="1" stop-color="#1E94E9"/>
</linearGradient>
</defs>
</svg>
