<svg width="17" height="21" viewBox="0 0 17 21" fill="none" xmlns="http://www.w3.org/2000/svg">
<path d="M1.4972 19.7499H1.49696C1.41804 19.7499 1.36597 19.7156 1.34061 19.6813C1.29355 19.6175 1.25 19.5185 1.25 19.3638V2.19774C1.25 1.7668 1.71468 1.25 2.3818 1.25H14.6849C15.3157 1.25 15.75 1.73343 15.75 2.19774V19.3639C15.75 19.6034 15.6815 19.6879 15.6626 19.7076C15.6408 19.7303 15.6058 19.75 15.5466 19.75C15.4832 19.75 15.3607 19.7254 15.1658 19.5684L15.1651 19.5679L9.67986 15.1616C9.35477 14.8997 8.93686 14.7799 8.5414 14.7799C8.14689 14.7799 7.72863 14.8991 7.40369 15.1605C7.40339 15.1607 7.40309 15.161 7.40279 15.1612L1.90009 19.5679L1.89836 19.5693C1.71683 19.7155 1.5733 19.7499 1.4972 19.7499Z" stroke="#C5C5C5" stroke-width="1.5"/>
</svg>
