<svg width="17" height="16" viewBox="0 0 17 16" fill="none" xmlns="http://www.w3.org/2000/svg">
<path d="M16.6194 14.3104L15.3174 2.06044C15.3174 1.29029 14.7207 0.666504 13.9841 0.666504H8.65073H3.3174C2.58073 0.666504 1.98407 1.29029 1.98407 2.06044L0.682067 14.3104C0.662734 14.4059 0.650734 14.5041 0.650734 14.6059C0.650734 15.376 1.2474 15.9998 1.98407 15.9998H8.65073H15.3174C16.0541 15.9998 16.6507 15.376 16.6507 14.6059C16.6507 14.5041 16.6387 14.4059 16.6194 14.3104ZM11.9841 4.08723V4.84832C11.9841 6.76987 10.4887 8.33317 8.65073 8.33317C6.81273 8.33317 5.3174 6.76987 5.3174 4.84832V4.08723C4.93007 3.94366 4.65073 3.56032 4.65073 3.1059C4.65073 2.52881 5.09873 2.06044 5.65073 2.06044C6.20273 2.06044 6.65073 2.52881 6.65073 3.1059V4.84832C6.65073 6.00111 7.54807 6.93923 8.65073 6.93923C9.7534 6.93923 10.6507 6.00111 10.6507 4.84832V3.1059C10.6507 2.52881 11.0987 2.06044 11.6507 2.06044C12.2027 2.06044 12.6507 2.52881 12.6507 3.1059C12.6507 3.56032 12.3714 3.94366 11.9841 4.08723Z" fill="white"/>
</svg>
