<svg width="21" height="21" viewBox="0 0 21 21" fill="none" xmlns="http://www.w3.org/2000/svg">
<g clip-path="url(#clip0_204_48044)">
<path d="M20.5801 8.01026C20.5379 7.88067 20.4258 7.78616 20.2909 7.76647L13.8148 6.82531L10.9186 0.957084C10.8585 0.834651 10.7339 0.757324 10.5978 0.757324C10.4618 0.757324 10.3369 0.834651 10.2771 0.957084L7.38056 6.82566L0.904462 7.76683C0.769499 7.78652 0.657805 7.88067 0.615204 8.01062C0.573318 8.13986 0.608044 8.28234 0.705776 8.37721L5.39226 12.9452L4.28571 19.3955C4.26279 19.5298 4.31793 19.6654 4.42783 19.7456C4.53845 19.8265 4.68487 19.8369 4.8048 19.7728L10.5978 16.7278L16.3902 19.7728C16.4424 19.8004 16.5001 19.814 16.557 19.814C16.6311 19.814 16.7048 19.7911 16.7675 19.7456C16.8778 19.6654 16.9329 19.5298 16.9096 19.3955L15.8034 12.9456L20.4899 8.37721C20.5873 8.28162 20.6224 8.1395 20.5801 8.01026Z" fill="white"/>
</g>
<defs>
<clipPath id="clip0_204_48044">
<rect x="0.597656" y="0.285645" width="20" height="20" rx="10" fill="white"/>
</clipPath>
</defs>
</svg>
