<svg width="20" height="20" viewBox="0 0 20 20" fill="none" xmlns="http://www.w3.org/2000/svg">
<path d="M10 0.375C12.5527 0.375 15.0009 1.38906 16.8059 3.1941C18.6109 4.99913 19.625 7.44729 19.625 10C19.625 12.5527 18.6109 15.0009 16.8059 16.8059C15.0009 18.6109 12.5527 19.625 10 19.625C7.44729 19.625 4.99913 18.6109 3.1941 16.8059C1.38906 15.0009 0.375 12.5527 0.375 10C0.375 7.44729 1.38906 4.99913 3.1941 3.1941C4.99913 1.38906 7.44729 0.375 10 0.375ZM10.5101 4.489C9.39088 4.489 8.51363 4.80662 7.86325 5.44187C7.19775 6.07713 6.88013 6.95437 6.88013 8.07363H8.60437C8.60437 7.43837 8.72538 6.93925 8.9825 6.59137C9.26988 6.16787 9.73875 5.97125 10.4042 5.97125C10.9185 5.97125 11.3269 6.10737 11.6143 6.39475C11.8865 6.68212 12.0378 7.07538 12.0378 7.5745C12.0378 7.95263 11.9016 8.31563 11.6294 8.64838L11.4479 8.86012C10.4648 9.73738 9.87488 10.3726 9.67825 10.781C9.4665 11.1894 9.37575 11.6885 9.37575 12.2633V12.475H11.1151V12.2633C11.1151 11.9002 11.1908 11.5826 11.342 11.2801C11.4781 11.0079 11.6748 10.7507 11.947 10.5239C12.673 9.88862 13.1116 9.48025 13.2478 9.329C13.6108 8.845 13.8074 8.22487 13.8074 7.46863C13.8074 6.546 13.5049 5.82 12.8999 5.29062C12.2949 4.74612 11.4932 4.489 10.5101 4.489ZM10.2379 13.2161C9.92948 13.2078 9.63035 13.322 9.406 13.5337C9.29523 13.6381 9.20818 13.765 9.15077 13.9059C9.09336 14.0468 9.06692 14.1985 9.07325 14.3505C9.07325 14.6832 9.17912 14.9555 9.406 15.1673C9.62867 15.3834 9.92759 15.5029 10.2379 15.5C10.5706 15.5 10.8429 15.3941 11.0697 15.1824C11.1829 15.0759 11.2723 14.9468 11.3322 14.8035C11.3922 14.6601 11.4213 14.5058 11.4176 14.3505C11.4205 14.1989 11.3925 14.0483 11.3353 13.9079C11.2781 13.7675 11.1929 13.6402 11.0849 13.5337C10.8547 13.3216 10.5508 13.2077 10.2379 13.2161Z" fill="#545454"/>
</svg>
