<svg width="25" height="25" viewBox="0 0 25 25" fill="none" xmlns="http://www.w3.org/2000/svg">
<circle cx="12.5" cy="12.5" r="12.5" fill="url(#paint0_linear_204_48481)"/>
<path d="M12.5 7.625C13.7929 7.625 15.0329 8.13861 15.9471 9.05285C16.8614 9.96709 17.375 11.2071 17.375 12.5C17.375 13.7929 16.8614 15.0329 15.9471 15.9471C15.0329 16.8614 13.7929 17.375 12.5 17.375V7.625ZM12.5 6.5C10.9087 6.5 9.38258 7.13214 8.25736 8.25736C7.13214 9.38258 6.5 10.9087 6.5 12.5C6.5 14.0913 7.13214 15.6174 8.25736 16.7426C9.38258 17.8679 10.9087 18.5 12.5 18.5C14.0913 18.5 15.6174 17.8679 16.7426 16.7426C17.8679 15.6174 18.5 14.0913 18.5 12.5C18.5 10.9087 17.8679 9.38258 16.7426 8.25736C15.6174 7.13214 14.0913 6.5 12.5 6.5Z" fill="#F6F6F6"/>
<defs>
<linearGradient id="paint0_linear_204_48481" x1="12.5" y1="0" x2="32.7223" y2="12.7969" gradientUnits="userSpaceOnUse">
<stop stop-color="#30BDDC"/>
<stop offset="1" stop-color="#1E94E9"/>
</linearGradient>
</defs>
</svg>
