<svg width="25" height="25" viewBox="0 0 25 25" fill="none" xmlns="http://www.w3.org/2000/svg">
<circle cx="12.5" cy="12.5" r="12.5" fill="url(#paint0_linear_204_48460)"/>
<path d="M9.49993 15.5899L8.49993 14.5894L7.79443 15.2944L9.49993 16.9999L12.4999 13.9999L11.7949 13.2949L9.49993 15.5899Z" fill="#F6F6F6"/>
<path d="M18 19H16V18H18V12H16V8C15.9993 7.46977 15.7884 6.96145 15.4135 6.58652C15.0386 6.21159 14.5302 6.00066 14 6V5C14.7954 5.00093 15.5579 5.31729 16.1203 5.8797C16.6827 6.44211 16.9991 7.20463 17 8V11H18C18.2651 11.0003 18.5193 11.1057 18.7068 11.2932C18.8943 11.4807 18.9997 11.7349 19 12V18C18.9997 18.2651 18.8943 18.5193 18.7068 18.7068C18.5193 18.8943 18.2651 18.9997 18 19Z" fill="#F6F6F6"/>
<path d="M14 11H13V8C13 7.20435 12.6839 6.44129 12.1213 5.87868C11.5587 5.31607 10.7956 5 10 5C9.20435 5 8.44129 5.31607 7.87868 5.87868C7.31607 6.44129 7 7.20435 7 8V11H6C5.73478 11 5.48043 11.1054 5.29289 11.2929C5.10536 11.4804 5 11.7348 5 12V18C5 18.2652 5.10536 18.5196 5.29289 18.7071C5.48043 18.8946 5.73478 19 6 19H14C14.2652 19 14.5196 18.8946 14.7071 18.7071C14.8946 18.5196 15 18.2652 15 18V12C15 11.7348 14.8946 11.4804 14.7071 11.2929C14.5196 11.1054 14.2652 11 14 11ZM8 8C8 7.46957 8.21071 6.96086 8.58579 6.58579C8.96086 6.21071 9.46957 6 10 6C10.5304 6 11.0391 6.21071 11.4142 6.58579C11.7893 6.96086 12 7.46957 12 8V11H8V8ZM14 18H6V12H14V18Z" fill="#F6F6F6"/>
<defs>
<linearGradient id="paint0_linear_204_48460" x1="12.5" y1="0" x2="32.7223" y2="12.7969" gradientUnits="userSpaceOnUse">
<stop stop-color="#30BDDC"/>
<stop offset="1" stop-color="#1E94E9"/>
</linearGradient>
</defs>
</svg>
