<svg width="25" height="26" viewBox="0 0 25 26" fill="none" xmlns="http://www.w3.org/2000/svg">
<path d="M23.6334 16.4864L21.9514 15.1017C22.2495 13.6998 22.2495 12.2508 21.9514 10.8488L23.6334 9.46416C23.8274 9.30522 23.9584 9.08241 24.0031 8.83563C24.0478 8.58885 24.0032 8.33423 23.8772 8.11736L22.1507 5.127C22.0258 4.90942 21.8276 4.74341 21.5915 4.65871C21.3554 4.57402 21.0968 4.57618 20.8622 4.66481L18.8207 5.42968C17.7572 4.46881 16.5025 3.74366 15.139 3.30181L14.7808 1.15388C14.7403 0.906334 14.6129 0.681327 14.4215 0.519184C14.2301 0.357042 13.9872 0.268364 13.7364 0.269047H10.2834C10.0325 0.268373 9.78967 0.357047 9.59828 0.519177C9.40689 0.681307 9.27949 0.906295 9.23892 1.15382L8.88092 3.30181C7.51744 3.74365 6.26279 4.4688 5.1993 5.42968L3.15757 4.66471C2.92292 4.57613 2.66441 4.57401 2.42834 4.65871C2.19227 4.74341 1.99407 4.9094 1.86926 5.12695L0.142752 8.11752C0.016834 8.3344 -0.0277578 8.58903 0.0169631 8.8358C0.0616839 9.08257 0.192796 9.30536 0.386817 9.46427L2.06864 10.8488C1.77047 12.2508 1.77047 13.6998 2.06864 15.1017L0.386658 16.4864C0.192668 16.6453 0.0615919 16.8681 0.016901 17.1149C-0.0277899 17.3617 0.0168233 17.6163 0.142752 17.8332L1.86931 20.8235C1.99414 21.0411 2.19236 21.2071 2.42847 21.2918C2.66457 21.3765 2.92312 21.3743 3.15778 21.2857L5.19935 20.5208C6.26284 21.4817 7.51749 22.2069 8.88097 22.6487L9.23897 24.7966C9.27953 25.0442 9.40691 25.2692 9.59829 25.4313C9.78967 25.5934 10.0325 25.6821 10.2834 25.6815H13.7364C13.9872 25.6822 14.2301 25.5935 14.4215 25.4314C14.6129 25.2692 14.7403 25.0442 14.7808 24.7967L15.1389 22.6487C16.5024 22.2069 17.757 21.4817 18.8205 20.5208L20.8622 21.2858C21.0968 21.3744 21.3553 21.3765 21.5914 21.2918C21.8275 21.2071 22.0257 21.0411 22.1505 20.8236L23.8769 17.833C24.0029 17.6162 24.0475 17.3616 24.0029 17.1149C23.9583 16.8681 23.8273 16.6453 23.6334 16.4864ZM20.9526 19.5104L18.4056 18.5562L18.0199 18.9445C16.9587 20.014 15.6314 20.7811 14.1749 21.1666L13.6455 21.3062L13.1984 23.9873H10.8218L10.3749 21.3062L9.84543 21.1666C8.38892 20.7811 7.06163 20.014 6.00047 18.9445L5.61479 18.5562L3.06735 19.5104L1.87927 17.4522L3.97733 15.725L3.83438 15.197C3.44127 13.7419 3.44127 12.2086 3.83438 10.7535L3.97733 10.2256L1.87927 8.49838L3.06762 6.44008L5.61463 7.39432L6.00032 7.00604C7.06147 5.93647 8.38876 5.16938 9.84527 4.78388L10.3747 4.64433L10.8216 1.96321H13.1984L13.6453 4.64433L14.1748 4.78388C15.6313 5.16938 16.9585 5.93647 18.0197 7.00604L18.4054 7.39432L20.9524 6.44008L22.1408 8.49833L20.0427 10.2256L20.1857 10.7535C20.5788 12.2086 20.5788 13.7419 20.1857 15.197L20.0427 15.725L22.1408 17.4521L20.9526 19.5104Z" fill="white"/>
</svg>
