<svg width="25" height="24" viewBox="0 0 25 24" fill="none" xmlns="http://www.w3.org/2000/svg">
<path d="M2.87745 2.21983C2.75043 2.34682 2.6732 2.51517 2.6598 2.69428C2.64641 2.87339 2.69773 3.05136 2.80445 3.19583L2.87745 3.27983L6.91145 7.31483C4.94448 8.69346 3.54033 10.7349 2.95645 13.0648C2.91143 13.2566 2.94369 13.4584 3.04625 13.6267C3.14882 13.7949 3.31346 13.916 3.50458 13.9638C3.69571 14.0116 3.89798 13.9823 4.06767 13.8822C4.23736 13.7821 4.36085 13.6192 4.41145 13.4288C4.93035 11.3608 6.20835 9.56378 7.99145 8.39483L9.80145 10.2048C9.07844 10.9603 8.68004 11.9689 8.69157 13.0146C8.7031 14.0602 9.12366 15.0598 9.86315 15.7991C10.6026 16.5385 11.6023 16.9589 12.6479 16.9702C13.6936 16.9815 14.7021 16.583 15.4574 15.8598L21.3764 21.7798C21.5103 21.914 21.6899 21.9926 21.8793 21.9997C22.0687 22.0068 22.2538 21.942 22.3973 21.8182C22.5408 21.6945 22.6322 21.5209 22.653 21.3326C22.6738 21.1442 22.6225 20.9549 22.5094 20.8028L22.4364 20.7188L16.3234 14.6048L16.3244 14.6028L9.37445 7.65683L9.37645 7.65483L8.24345 6.52483L3.93745 2.21983C3.79682 2.07938 3.6062 2.00049 3.40745 2.00049C3.2087 2.00049 3.01807 2.07938 2.87745 2.21983ZM12.6574 5.49983C11.6574 5.49983 10.6874 5.64783 9.76845 5.92483L11.0054 7.16083C13.145 6.73719 15.3655 7.15191 17.2079 8.31926C19.0503 9.4866 20.3737 11.3173 20.9044 13.4328C20.9563 13.6218 21.0799 13.7829 21.249 13.8818C21.4181 13.9808 21.6192 14.0096 21.8093 13.9622C21.9994 13.9148 22.1634 13.7948 22.2662 13.6281C22.369 13.4613 22.4025 13.261 22.3594 13.0698C21.8172 10.9073 20.568 8.98789 18.8102 7.6164C17.0525 6.24492 14.8869 5.49996 12.6574 5.49983ZM12.8524 9.00983L16.6534 12.8098C16.6043 11.8177 16.188 10.8793 15.4855 10.1771C14.7831 9.47476 13.8446 9.05874 12.8524 9.00983Z" fill="#545454"/>
</svg>
